<?xml version="1.0" standalone="no"?>
<!DOCTYPE svg PUBLIC "-//W3C//DTD SVG 20010904//EN"
 "http://www.w3.org/TR/2001/REC-SVG-20010904/DTD/svg10.dtd">
<svg version="1.0" xmlns="http://www.w3.org/2000/svg"
 width="2550.000000pt" height="1630.000000pt" viewBox="0 0 2550.000000 1630.000000"
 preserveAspectRatio="xMidYMid meet">
<metadata>
Created by potrace 1.16, written by Peter Selinger 2001-2019
</metadata>
<g transform="translate(0.000000,1630.000000) scale(0.100000,-0.100000)"
fill="#000000" stroke="none">
<path d="M23740 16232 c0 -5 -18 -12 -41 -16 -22 -4 -51 -13 -64 -22 -13 -9
-29 -13 -35 -9 -5 3 -10 -1 -10 -10 0 -23 -47 -66 -105 -96 -26 -13 -55 -36
-66 -51 -11 -15 -30 -30 -42 -34 -12 -3 -42 -26 -65 -50 -24 -24 -60 -52 -80
-61 -21 -9 -53 -27 -73 -39 -20 -13 -40 -20 -43 -17 -3 4 -6 1 -6 -5 0 -7 -10
-12 -22 -12 -12 0 -19 -3 -15 -6 12 -13 -85 -80 -101 -70 -5 3 -24 -10 -42
-29 -23 -24 -43 -35 -62 -35 -16 0 -28 -5 -28 -13 0 -19 -37 -47 -63 -47 -12
0 -39 -15 -59 -34 -21 -19 -46 -37 -56 -40 -11 -4 -27 -15 -37 -26 -10 -11
-24 -20 -32 -20 -8 0 -28 -13 -46 -30 -18 -16 -36 -30 -40 -30 -5 0 -27 -16
-50 -35 -22 -19 -46 -35 -53 -35 -6 0 -17 -7 -24 -15 -7 -8 -15 -13 -19 -10
-4 2 -20 -7 -35 -20 -15 -13 -34 -21 -41 -19 -14 6 -88 -64 -99 -91 -3 -8 -12
-15 -21 -15 -8 0 -15 -5 -15 -11 0 -5 -4 -8 -9 -4 -5 3 -16 -1 -24 -9 -8 -8
-18 -12 -22 -8 -5 4 -6 0 -2 -9 4 -12 -14 -30 -66 -65 -40 -27 -78 -56 -84
-65 -7 -9 -25 -20 -40 -24 -15 -3 -44 -24 -65 -46 -20 -21 -42 -39 -47 -39 -5
0 -13 -10 -16 -21 -5 -16 -9 -18 -15 -9 -8 13 -30 6 -30 -9 0 -12 -104 -121
-115 -121 -6 0 -26 -13 -45 -30 -19 -16 -39 -29 -43 -30 -11 0 -29 -19 -51
-52 -10 -16 -24 -28 -31 -28 -8 0 -29 -18 -49 -41 -22 -26 -39 -38 -47 -33 -8
5 -10 3 -5 -5 10 -15 -48 -69 -81 -77 -13 -4 -23 -12 -23 -20 0 -8 -4 -14 -8
-14 -5 0 -14 -11 -21 -24 -7 -13 -25 -30 -40 -37 -27 -14 -121 -108 -121 -122
0 -4 -11 -12 -25 -17 -14 -5 -25 -14 -25 -20 0 -6 -4 -8 -10 -5 -5 3 -10 -1
-10 -10 0 -9 -9 -19 -20 -22 -11 -3 -20 -12 -20 -19 0 -8 -8 -14 -18 -14 -10
0 -24 -10 -32 -22 -8 -12 -23 -30 -33 -40 -10 -10 -15 -23 -12 -27 2 -5 -5
-11 -18 -15 -30 -7 -120 -92 -112 -106 3 -5 1 -10 -5 -10 -5 0 -24 -13 -42
-30 -17 -16 -37 -30 -44 -30 -8 0 -14 -4 -14 -9 0 -12 -58 -70 -64 -64 -14 14
-72 -70 -61 -87 3 -6 -3 -10 -14 -10 -12 0 -21 -6 -21 -13 0 -15 -53 -72 -87
-94 -13 -9 -20 -19 -17 -24 3 -5 0 -9 -5 -9 -6 0 -11 -6 -11 -14 0 -8 -7 -16
-15 -20 -8 -3 -15 -14 -15 -25 0 -23 -16 -36 -45 -36 -13 0 -26 -12 -37 -36
-9 -19 -23 -41 -32 -48 -9 -8 -16 -20 -16 -27 0 -8 -4 -14 -10 -14 -5 0 -10
-5 -10 -11 0 -13 -20 -33 -42 -42 -10 -3 -18 -11 -18 -17 0 -12 -21 -38 -82
-102 -27 -27 -48 -55 -48 -63 0 -8 -3 -15 -7 -15 -17 -1 -123 -108 -123 -124
0 -9 -10 -21 -22 -26 -13 -5 -17 -9 -9 -9 11 -1 11 -5 -2 -19 -10 -10 -17 -24
-17 -30 0 -7 -6 -12 -12 -12 -7 0 -26 -21 -42 -46 -19 -30 -31 -41 -36 -33 -5
8 -10 5 -15 -10 -3 -11 -11 -21 -16 -21 -5 0 -9 -5 -9 -11 0 -6 -6 -16 -12
-23 -7 -8 -20 -24 -28 -37 -8 -13 -30 -38 -47 -56 -18 -18 -33 -39 -33 -48 0
-8 -7 -15 -16 -15 -11 0 -14 -5 -10 -17 5 -12 -7 -30 -41 -62 -27 -25 -55 -58
-62 -73 -8 -15 -22 -30 -31 -33 -9 -3 -24 -22 -33 -43 -9 -22 -33 -53 -52 -71
-19 -17 -35 -37 -35 -45 0 -7 -18 -34 -40 -59 -22 -25 -40 -50 -40 -56 0 -6
-4 -11 -10 -11 -5 0 -10 -7 -10 -15 0 -8 -4 -15 -8 -15 -5 0 -15 -11 -22 -25
-7 -14 -19 -25 -27 -25 -7 0 -13 -7 -13 -15 0 -8 -4 -15 -10 -15 -5 0 -10 -4
-10 -10 0 -5 -8 -19 -17 -29 -10 -11 -27 -32 -38 -46 -11 -15 -24 -32 -30 -38
-5 -7 -12 -21 -13 -32 -2 -11 -10 -24 -18 -28 -8 -4 -14 -17 -14 -27 0 -11 -5
-20 -10 -20 -14 0 -43 -28 -66 -65 -23 -38 -87 -119 -96 -123 -4 -2 -24 -26
-44 -53 -19 -27 -42 -49 -50 -49 -8 0 -14 -8 -14 -19 0 -18 -45 -71 -61 -71
-5 0 -9 -7 -9 -15 0 -8 -4 -15 -10 -15 -5 0 -9 -10 -7 -22 1 -17 -4 -24 -20
-26 -15 -2 -23 -10 -23 -23 0 -10 -4 -19 -8 -19 -4 0 -21 -20 -36 -45 -16 -25
-33 -45 -37 -45 -5 0 -9 -9 -9 -20 0 -14 -5 -18 -16 -13 -13 5 -15 2 -10 -14
4 -14 -2 -25 -24 -41 -16 -13 -30 -29 -30 -37 0 -8 -5 -15 -11 -15 -6 0 -9 -9
-6 -20 4 -14 0 -20 -12 -20 -11 0 -26 -16 -37 -37 -10 -21 -22 -40 -26 -43 -4
-3 -14 -22 -22 -42 -8 -19 -41 -60 -72 -91 -54 -53 -77 -83 -90 -119 -3 -10
-10 -18 -15 -18 -5 0 -9 -7 -9 -15 0 -8 -9 -23 -20 -32 -11 -10 -20 -26 -20
-36 0 -14 -5 -17 -21 -12 -16 5 -20 3 -17 -12 2 -10 -5 -22 -17 -27 -23 -10
-60 -80 -50 -95 3 -6 -6 -13 -20 -17 -14 -3 -25 -10 -25 -15 0 -4 -18 -27 -40
-51 -22 -24 -40 -47 -40 -53 0 -5 -12 -17 -28 -26 -15 -8 -34 -29 -42 -45 -8
-16 -25 -37 -38 -47 -12 -10 -20 -22 -18 -26 3 -4 -7 -21 -22 -38 -16 -16 -26
-35 -24 -41 2 -6 -6 -15 -16 -21 -18 -9 -82 -106 -71 -106 8 -1 -36 -43 -57
-53 -14 -7 -21 -21 -21 -38 0 -14 -7 -30 -14 -35 -8 -5 -11 -9 -6 -9 9 0 -29
-39 -67 -67 -16 -13 -27 -23 -23 -23 9 0 -20 -46 -45 -74 -9 -10 -20 -32 -23
-47 -4 -16 -11 -31 -16 -34 -5 -4 -9 -14 -9 -24 0 -10 -11 -26 -24 -35 -13 -8
-34 -36 -47 -61 -12 -25 -26 -45 -31 -45 -4 0 -8 -7 -8 -15 0 -8 -5 -15 -10
-15 -6 0 -15 -11 -20 -25 -5 -14 -14 -25 -19 -25 -5 0 -14 -13 -21 -30 -7 -16
-31 -49 -54 -72 -22 -24 -49 -60 -58 -81 -10 -20 -22 -37 -28 -37 -5 0 -10 -9
-10 -20 0 -11 -7 -20 -15 -20 -8 0 -15 -7 -15 -15 0 -8 -4 -15 -9 -15 -5 0
-11 -13 -14 -30 -7 -30 -26 -57 -88 -120 -20 -20 -42 -51 -50 -68 -8 -18 -17
-32 -21 -32 -3 0 -14 -13 -22 -30 -9 -16 -23 -43 -32 -60 -8 -16 -20 -30 -25
-30 -6 0 -8 -4 -5 -9 3 -4 -6 -18 -19 -31 -14 -13 -35 -44 -47 -69 -17 -37
-80 -111 -94 -111 -21 0 -92 -108 -86 -132 1 -3 -10 -17 -24 -30 -14 -13 -45
-52 -68 -88 -24 -36 -54 -76 -65 -90 -12 -13 -32 -40 -44 -59 -12 -20 -36 -50
-54 -68 -18 -17 -33 -36 -33 -41 0 -6 -9 -13 -19 -17 -11 -3 -23 -15 -26 -26
-4 -10 -14 -19 -23 -19 -10 0 -28 -7 -40 -16 -12 -8 -27 -12 -34 -8 -6 4 -16
1 -22 -7 -15 -19 -52 -39 -71 -39 -9 0 -13 -4 -10 -10 3 -5 2 -10 -4 -10 -5 0
-13 -10 -16 -21 -5 -16 -9 -18 -15 -8 -7 10 -11 10 -24 0 -8 -7 -20 -10 -26
-6 -5 3 -10 2 -10 -4 0 -19 -58 -41 -101 -39 -56 2 -78 25 -81 83 0 25 -5 45
-10 45 -4 0 -8 7 -8 15 0 13 -23 70 -81 202 -11 24 -19 51 -19 61 0 10 -5 23
-11 29 -5 5 -12 23 -13 39 -2 16 -9 28 -15 26 -6 -1 -11 6 -11 16 0 10 -9 37
-20 60 -12 24 -18 47 -15 52 3 6 3 15 -1 22 -4 7 -9 23 -10 36 -2 13 -11 31
-21 40 -23 22 -39 47 -61 94 -9 21 -23 38 -29 38 -7 0 -13 5 -13 10 0 6 5 10
11 10 6 0 0 15 -15 34 -14 19 -26 42 -26 51 0 9 -11 27 -24 40 -34 34 -66 81
-60 88 3 3 -6 13 -20 22 -14 10 -26 23 -26 30 0 7 -32 41 -71 76 -39 35 -78
71 -87 79 -9 8 -18 15 -21 16 -12 2 -47 16 -73 30 -14 8 -35 14 -45 14 -10 0
-23 4 -29 10 -5 5 -18 11 -29 13 -30 6 -59 19 -67 31 -4 6 -12 5 -22 -3 -12
-11 -27 -10 -81 4 -49 12 -70 13 -80 5 -10 -8 -15 -8 -20 0 -4 6 -14 9 -22 6
-8 -3 -21 1 -29 9 -22 21 -149 21 -158 0 -3 -8 -12 -12 -20 -9 -8 3 -20 2 -27
-2 -7 -4 -39 -7 -72 -6 -33 0 -69 -3 -81 -7 -23 -9 -46 -4 -46 9 0 5 -26 36
-57 68 -66 67 -103 112 -103 127 0 6 -18 27 -40 48 -22 20 -40 43 -40 52 0 8
-6 15 -14 15 -16 0 -48 39 -41 51 3 3 -8 9 -23 12 -91 16 -174 47 -193 70 -13
17 -29 26 -47 26 -15 -1 -52 7 -82 16 -30 10 -83 23 -117 29 -34 6 -68 17 -75
24 -16 16 -45 16 -51 0 -4 -9 -8 -10 -14 -2 -11 15 -76 27 -155 28 -54 1 -68
4 -68 16 0 9 -3 11 -8 5 -8 -11 -93 -14 -85 -2 2 4 0 7 -6 7 -5 0 -12 -4 -16
-9 -6 -10 -38 -9 -65 2 -8 3 -31 8 -50 11 -19 3 -45 8 -58 10 -47 7 -57 51
-16 71 11 6 19 16 16 23 -2 6 4 15 13 18 10 4 34 22 54 40 20 19 39 34 42 34
3 0 20 20 38 45 18 25 38 45 45 45 16 0 106 99 106 117 0 6 9 14 20 18 10 3
29 22 40 41 12 19 26 32 31 28 5 -3 9 -1 9 5 0 14 55 42 65 33 5 -4 5 -1 1 6
-4 6 -4 12 1 12 4 0 16 14 25 30 9 17 24 30 33 30 8 0 15 7 15 15 0 8 7 15 16
15 17 0 97 77 107 104 4 9 18 21 32 26 15 6 32 24 41 45 8 20 21 38 29 42 8 3
15 10 15 17 0 13 35 46 50 46 6 0 10 10 10 22 0 17 3 19 12 10 16 -16 28 -15
28 3 0 8 4 15 9 15 5 0 19 16 31 35 12 19 29 35 38 35 19 0 99 84 94 98 -2 6
7 17 18 25 15 10 18 16 8 19 -7 3 3 8 23 12 25 4 39 13 42 26 3 11 12 20 21
20 9 0 16 8 16 20 0 12 10 24 24 30 14 5 26 19 28 32 2 15 9 23 20 22 10 -1
16 2 13 6 -3 4 10 24 28 43 48 51 57 65 57 82 0 8 6 15 14 15 7 0 26 18 41 39
15 22 32 38 38 36 11 -3 137 133 146 157 5 14 32 40 57 54 10 6 19 15 19 20 0
5 22 27 49 49 46 37 92 91 134 157 9 15 27 33 39 39 13 7 41 41 63 77 23 35
43 62 47 59 7 -8 33 18 33 32 0 6 7 11 15 11 8 0 15 5 15 10 0 6 27 37 60 71
33 33 60 67 60 75 0 7 9 19 20 26 11 7 20 19 20 26 0 8 6 12 12 10 16 -6 33
11 42 40 4 12 12 22 17 22 5 0 9 6 9 14 0 7 7 19 15 26 9 7 14 19 11 27 -3 8
-1 11 4 8 6 -3 10 -1 10 4 0 6 7 11 15 11 8 0 15 7 15 15 0 8 7 15 15 15 8 0
14 3 14 8 -3 18 2 35 8 29 11 -12 33 14 33 39 0 15 6 24 15 24 8 0 15 9 15 20
0 11 5 20 10 20 14 0 59 51 60 67 0 6 16 20 35 32 21 12 42 36 50 55 8 19 40
59 70 89 30 29 55 61 55 69 0 9 14 28 31 42 18 15 27 31 23 37 -4 8 -3 9 4 5
7 -4 12 0 12 10 0 10 3 14 7 11 8 -9 53 32 53 48 0 13 58 75 71 75 5 0 9 6 9
13 0 19 67 87 85 87 8 0 15 7 15 15 0 8 5 15 10 15 11 0 35 48 32 63 -1 4 12
10 29 14 24 4 29 10 26 24 -4 13 0 19 12 19 10 0 23 11 29 25 6 14 17 25 24
25 17 0 106 87 113 111 4 10 10 19 15 19 5 0 6 7 3 17 -4 11 -3 14 5 9 7 -4
12 -3 12 3 0 6 7 8 15 5 9 -4 15 0 16 10 1 9 2 20 3 25 0 5 23 29 51 53 73 63
82 74 90 97 3 12 12 20 19 19 7 -2 36 22 63 52 28 31 63 62 77 69 14 8 26 19
25 25 -2 23 14 56 27 56 8 0 14 9 14 20 0 11 6 20 13 20 11 0 27 16 100 102 9
12 17 25 17 31 0 5 7 7 14 4 11 -4 13 -1 9 10 -5 13 -2 15 16 10 18 -4 21 -2
16 14 -4 13 -2 19 9 19 9 0 16 5 16 10 0 6 8 10 18 10 10 0 23 13 31 31 8 19
18 28 27 25 19 -7 86 64 81 86 -3 9 -2 18 2 20 3 2 22 23 42 48 29 38 34 50
28 75 -3 17 -7 59 -8 94 0 35 -6 82 -12 105 -6 22 -15 57 -20 76 -5 19 -11 44
-13 55 -12 76 -44 123 -78 117 -11 -2 -18 3 -18 13 0 9 -15 22 -34 30 -19 8
-36 18 -38 23 -12 29 -137 71 -223 76 -11 1 -26 5 -33 9 -25 17 -89 9 -140
-17 -47 -24 -95 -37 -65 -18 6 4 -6 7 -28 7 -25 0 -39 -4 -39 -12 0 -7 -1 -13
-2 -13 -2 0 -27 7 -57 14 -29 8 -50 12 -47 8 12 -12 -59 -28 -88 -20 -17 4
-34 3 -41 -2 -7 -6 -26 -7 -44 -4 -20 4 -31 3 -31 -5 0 -11 -65 -7 -100 6 -19
7 -72 3 -85 -6 -5 -4 -47 -7 -92 -6 -46 2 -80 -1 -77 -6 5 -9 -9 -13 -34 -10
-7 1 -15 -5 -18 -14 -5 -12 -10 -13 -20 -4 -21 17 -94 18 -94 1 0 -8 -7 -11
-17 -8 -29 8 -98 10 -109 3 -6 -4 -35 -4 -63 -1 -46 5 -55 3 -72 -17 -16 -18
-22 -20 -28 -10 -7 10 -16 11 -37 4 -33 -10 -74 -6 -74 8 0 13 -24 11 -38 -3
-12 -12 -24 -14 -137 -23 -38 -3 -83 -7 -100 -10 -92 -13 -222 -27 -275 -29
-25 -1 -50 -5 -56 -9 -6 -3 -53 -7 -105 -8 -158 -2 -193 -5 -217 -18 -13 -7
-29 -11 -35 -8 -7 2 -36 1 -64 -3 -29 -3 -53 -3 -53 2 0 5 -10 2 -23 -7 -16
-10 -50 -15 -103 -16 -43 -1 -94 -6 -112 -11 -18 -5 -63 -11 -100 -12 -87 -3
-211 -23 -239 -38 -17 -8 -32 -8 -62 0 -56 17 -98 15 -118 -7 -15 -15 -82 -37
-103 -34 -3 1 -22 4 -42 8 -31 6 -38 4 -38 -8 0 -13 -13 -15 -82 -11 -45 2
-99 -1 -119 -6 -20 -6 -62 -11 -93 -13 -36 -1 -58 -7 -61 -16 -4 -10 -17 -12
-54 -7 -29 4 -51 2 -53 -3 -1 -5 -32 -11 -68 -12 -36 -2 -70 -7 -77 -11 -11
-9 -122 -21 -185 -21 -16 0 -28 -5 -28 -13 0 -8 -20 -14 -57 -17 -32 -3 -76
-8 -98 -11 -22 -3 -60 -7 -84 -9 -24 -3 -47 -10 -51 -17 -4 -7 -34 -12 -74
-12 -36 0 -66 -4 -66 -9 0 -6 -8 -5 -19 0 -14 8 -22 7 -31 -4 -7 -8 -16 -13
-20 -10 -5 3 -11 1 -15 -4 -3 -6 -12 -8 -20 -4 -8 3 -15 1 -15 -3 0 -13 -80
-11 -80 1 0 6 -5 2 -11 -8 -7 -12 -15 -15 -27 -8 -11 6 -24 5 -36 -1 -10 -6
-38 -8 -62 -5 -24 2 -44 1 -44 -4 0 -5 -13 -9 -30 -9 -20 0 -28 -4 -24 -13 3
-9 -13 -12 -73 -9 -63 4 -79 1 -89 -12 -13 -18 -62 -24 -84 -11 -9 6 -12 4 -8
-6 4 -11 -8 -14 -59 -14 -36 0 -67 -3 -70 -7 -2 -5 -15 -5 -29 -2 -18 5 -24 2
-24 -11 0 -12 -5 -15 -21 -10 -11 4 -33 2 -47 -4 -15 -6 -42 -12 -60 -14 -17
-2 -35 -7 -39 -10 -10 -11 -45 -8 -38 3 3 6 -1 7 -9 4 -9 -3 -16 -10 -16 -15
0 -4 -7 -5 -17 -2 -10 4 -14 2 -10 -4 5 -8 -5 -8 -30 -3 -22 5 -44 5 -55 -1
-10 -6 -22 -7 -27 -4 -5 3 -11 0 -13 -7 -2 -6 -18 -11 -36 -10 -18 0 -32 -4
-32 -9 0 -6 -4 -8 -9 -4 -14 8 -121 -6 -134 -19 -7 -6 -41 -12 -77 -14 -35 -2
-69 -7 -75 -11 -5 -4 -40 -7 -78 -6 -37 0 -59 -2 -50 -6 16 -6 16 -7 -2 -11
-11 -2 -30 0 -42 5 -25 11 -98 -7 -121 -30 -13 -12 -44 -18 -67 -13 -38 8 -97
1 -113 -14 -15 -13 -29 -15 -60 -10 -31 5 -48 2 -68 -11 -17 -11 -39 -15 -62
-13 -20 3 -49 -2 -65 -10 -15 -8 -49 -15 -75 -17 -83 -6 -152 -18 -152 -26 0
-5 -25 -9 -55 -9 -34 0 -55 -4 -55 -11 0 -8 -15 -10 -45 -7 -25 3 -45 2 -45
-2 0 -5 -18 -6 -40 -3 -31 4 -41 2 -46 -11 -4 -11 -13 -14 -31 -10 -16 4 -28
2 -33 -7 -7 -10 -11 -10 -25 1 -13 11 -18 11 -24 1 -8 -13 -47 -11 -69 3 -8 5
-18 2 -25 -8 -7 -10 -29 -17 -54 -19 -23 -1 -45 -6 -49 -10 -4 -4 -27 -7 -51
-7 -28 0 -49 -6 -61 -17 -12 -13 -31 -18 -72 -16 -30 0 -68 -3 -85 -7 -39 -11
-125 -27 -194 -36 -42 -5 -52 -4 -46 7 5 7 -2 5 -16 -4 -13 -9 -34 -17 -46
-17 -13 0 -23 -5 -23 -11 0 -8 -23 -10 -70 -7 -39 2 -70 0 -70 -4 0 -4 -18 -8
-39 -8 -22 0 -43 -5 -47 -11 -3 -6 -15 -8 -26 -6 -11 3 -31 2 -44 -3 -13 -5
-50 -10 -81 -11 -32 -1 -62 -4 -68 -8 -5 -3 -19 -6 -30 -6 -11 0 -26 -4 -33
-9 -7 -4 -29 -5 -48 -1 -22 4 -41 2 -50 -6 -8 -6 -27 -9 -44 -5 -19 3 -30 1
-30 -5 0 -7 -16 -10 -39 -7 -27 2 -37 0 -31 -7 6 -7 -10 -11 -48 -13 -160 -8
-192 -11 -202 -17 -19 -12 -138 -26 -255 -30 -60 -2 -132 -5 -160 -6 -27 -1
-56 -6 -62 -12 -7 -5 -39 -10 -72 -11 -32 -1 -65 -6 -72 -12 -8 -5 -25 -10
-39 -11 -70 -5 -140 -15 -140 -21 0 -4 -30 -8 -68 -10 -37 -1 -68 -6 -70 -11
-2 -5 -60 -7 -130 -5 -82 2 -131 -1 -140 -8 -8 -7 -64 -12 -135 -14 -67 -1
-133 -6 -147 -12 -14 -5 -47 -13 -75 -17 -27 -4 -55 -11 -62 -16 -7 -7 -14 -6
-18 1 -5 8 -12 7 -23 -3 -21 -18 -80 -27 -86 -13 -3 7 -8 6 -14 -2 -5 -8 -37
-15 -83 -17 -89 -4 -160 -14 -174 -25 -5 -4 -49 -6 -97 -5 -49 2 -88 -1 -88
-6 0 -5 -7 -9 -15 -9 -8 0 -15 5 -15 11 0 7 -11 8 -31 4 -45 -10 -114 -16
-197 -16 -41 0 -70 -4 -67 -9 3 -5 -18 -7 -49 -5 -38 3 -57 0 -66 -9 -7 -10
-19 -12 -38 -7 -15 4 -49 9 -77 11 -27 1 -58 3 -67 3 -10 1 -18 7 -18 14 0 11
-5 11 -20 3 -15 -8 -30 -8 -56 0 -30 10 -38 9 -55 -6 -22 -20 -56 -41 -81 -50
-21 -7 -24 -24 -5 -25 6 0 2 -4 -11 -9 -12 -5 -22 -16 -22 -24 0 -8 -5 -16
-12 -18 -17 -6 -18 -105 -1 -119 7 -6 13 -18 13 -26 0 -10 6 -13 16 -9 12 5
15 0 12 -22 -2 -16 5 -36 17 -50 11 -13 21 -29 21 -35 5 -33 18 -58 30 -53 7
3 18 -2 24 -10 7 -8 19 -14 26 -14 8 0 15 -7 15 -15 1 -8 2 -21 3 -27 0 -7 18
-22 39 -33 20 -11 40 -28 43 -37 4 -13 12 -16 36 -11 23 5 29 3 23 -6 -5 -9 6
-12 46 -10 60 2 113 -17 105 -38 -7 -17 -1 -16 18 3 13 12 23 14 45 6 16 -6
46 -7 71 -2 23 4 59 6 80 3 29 -4 40 -1 51 14 13 18 21 20 94 13 44 -3 82 -4
85 -1 8 9 90 8 90 -1 0 -14 38 -8 55 8 17 17 102 23 124 9 7 -3 23 1 37 10 18
12 55 16 152 19 128 3 182 10 215 28 10 5 45 8 78 7 35 -1 65 3 71 9 15 15 32
16 23 2 -3 -5 1 -10 10 -10 9 0 13 4 10 10 -3 6 1 7 9 4 9 -3 16 -2 16 3 0 6
34 13 76 16 41 3 81 11 89 17 8 7 26 9 44 5 52 -11 128 -7 152 8 13 8 37 14
52 13 15 -1 33 4 38 10 5 7 19 10 29 7 13 -3 20 0 20 8 0 10 3 10 12 1 18 -18
75 -15 87 6 9 15 10 15 16 1 6 -15 12 -15 73 -1 37 8 104 15 150 16 45 0 82 4
82 9 0 4 25 4 55 1 37 -5 59 -3 69 5 8 7 24 10 35 6 10 -3 22 -2 25 4 3 5 33
8 66 7 39 -2 61 1 64 9 3 9 17 10 45 5 32 -6 43 -4 50 7 6 11 27 14 94 11 58
-2 87 1 87 8 0 15 40 32 80 34 79 2 155 13 161 21 3 5 23 11 45 13 21 2 54 7
71 11 21 5 38 3 47 -4 9 -7 17 -8 20 -2 3 5 0 12 -6 15 -7 3 1 4 17 1 17 -3
43 1 59 10 15 8 50 15 76 15 27 0 50 5 52 10 2 6 48 11 110 13 58 1 110 5 114
10 4 4 17 7 29 7 13 0 28 6 34 14 6 7 42 16 84 20 39 3 97 12 127 18 30 6 89
12 130 13 41 1 83 5 92 10 10 4 23 5 30 2 7 -2 24 1 38 8 65 32 80 37 103 33
14 -3 34 0 46 6 14 8 46 9 93 5 40 -3 85 -3 101 2 17 5 34 6 40 2 5 -3 13 0
17 8 5 7 17 14 27 15 10 2 40 8 66 13 26 6 69 13 95 17 26 3 52 10 59 16 7 5
33 8 59 7 28 -2 49 1 51 8 2 6 13 9 23 6 11 -3 28 -2 37 2 10 4 25 9 33 10 8
1 23 6 33 10 11 4 17 3 17 -5 0 -8 6 -9 18 -5 9 4 25 7 35 7 9 0 17 3 17 9 0
5 10 9 23 9 12 0 33 7 45 16 19 13 33 14 77 6 44 -7 55 -6 55 5 0 16 42 17 58
1 9 -9 17 -9 34 -1 43 21 162 42 176 31 9 -8 12 -6 12 6 0 11 9 16 33 16 17 0
41 7 51 15 11 8 35 15 53 15 19 0 48 7 64 16 17 8 63 18 102 21 40 3 77 9 82
13 6 4 28 6 49 4 21 -2 44 0 50 3 5 4 26 8 45 10 20 2 39 9 43 16 5 9 15 8 41
-1 44 -16 67 -15 67 2 0 9 20 15 62 20 35 3 69 13 80 22 14 13 21 14 32 5 10
-9 24 -8 57 3 38 13 71 17 211 30 14 2 37 9 50 17 14 9 55 16 103 18 44 2 84
5 89 8 5 3 29 8 54 10 26 2 49 9 53 15 4 6 18 8 31 5 14 -4 28 -4 32 0 4 4 19
9 34 10 15 2 32 10 38 18 6 8 14 11 18 7 12 -12 70 -11 85 1 8 7 49 13 92 13
49 1 89 8 110 18 19 9 59 17 89 17 30 1 62 5 70 9 8 5 35 4 60 0 42 -8 100 4
100 21 0 4 33 10 73 13 39 4 90 13 112 21 36 12 120 12 153 0 6 -2 12 0 12 5
0 6 13 10 29 10 17 0 33 5 36 10 4 6 21 8 40 4 19 -3 35 -1 39 5 4 6 27 11 52
11 24 0 44 5 44 10 0 7 6 7 18 1 10 -6 24 -6 32 -1 8 5 17 7 21 4 4 -2 10 0
14 6 4 6 11 8 16 4 24 -15 112 -15 135 1 13 8 24 12 24 9 0 -4 8 0 18 9 10 10
22 14 25 10 14 -14 239 9 262 27 6 4 35 9 65 10 30 1 62 2 70 2 8 0 20 4 25 9
6 4 42 9 80 11 39 2 73 7 77 13 4 5 41 9 82 9 42 0 76 4 76 9 0 5 7 4 15 -3
11 -10 18 -10 29 -1 8 7 32 11 54 10 24 -2 48 3 58 12 12 9 18 10 21 3 5 -14
80 -8 138 11 26 8 73 12 133 9 52 -3 92 -1 92 5 0 12 39 21 45 10 3 -4 18 -4
33 2 15 6 42 11 60 11 17 0 32 4 32 9 0 5 3 8 8 8 4 -1 9 -1 12 0 3 1 71 3
153 3 81 0 147 4 147 7 0 3 10 7 23 8 93 6 150 14 160 20 6 4 88 8 182 9 130
2 177 6 199 18 22 11 33 12 43 4 9 -7 63 -9 160 -6 81 2 142 3 135 0 -7 -2
-12 -17 -12 -33 0 -30 -50 -89 -76 -89 -13 0 -18 -12 -11 -25 1 -2 -8 -12 -20
-20 -13 -9 -37 -37 -55 -63 -32 -47 -64 -81 -104 -108 -13 -9 -20 -22 -18 -32
3 -11 -6 -24 -26 -37 -16 -11 -30 -27 -30 -37 0 -9 -22 -33 -49 -53 -28 -20
-53 -44 -56 -54 -3 -11 -14 -21 -24 -24 -11 -3 -22 -18 -26 -36 -5 -23 -11
-31 -21 -27 -8 3 -13 2 -9 -3 3 -5 -27 -41 -66 -79 -46 -46 -68 -75 -63 -83 5
-9 2 -10 -9 -6 -11 4 -17 1 -17 -8 0 -8 -5 -15 -10 -15 -6 0 -14 -8 -17 -17
-4 -10 -17 -27 -30 -39 -13 -12 -23 -31 -23 -43 0 -14 -6 -21 -20 -21 -11 0
-20 -7 -20 -15 0 -8 -9 -15 -20 -15 -22 0 -67 -64 -62 -88 2 -7 -4 -15 -13
-18 -9 -4 -21 -17 -25 -30 -5 -13 -25 -30 -45 -38 -24 -10 -35 -21 -35 -35 0
-12 -5 -21 -10 -21 -11 0 -32 -44 -34 -70 -1 -8 -9 -14 -18 -14 -10 1 -15 -2
-12 -7 3 -5 -2 -9 -10 -9 -15 0 -21 -17 -17 -47 1 -6 -8 -14 -19 -18 -12 -4
-19 -9 -16 -12 3 -3 -2 -13 -11 -22 -9 -9 -17 -14 -18 -11 -4 12 -34 -24 -40
-48 -3 -15 -19 -36 -35 -47 -16 -11 -32 -32 -36 -47 -3 -15 -10 -30 -15 -33
-5 -4 -9 -13 -9 -21 0 -18 -24 -44 -40 -44 -7 0 -10 -7 -7 -14 4 -10 1 -13 -9
-9 -9 3 -19 -6 -29 -28 -16 -37 -39 -69 -49 -69 -12 0 -46 -40 -46 -56 0 -8
-5 -12 -10 -9 -12 8 -38 -16 -33 -31 2 -6 -12 -27 -32 -47 -19 -20 -35 -41
-35 -47 0 -6 -16 -28 -34 -48 -19 -20 -43 -52 -52 -72 -10 -19 -35 -50 -57
-68 -23 -18 -61 -59 -87 -91 -26 -33 -52 -55 -60 -53 -9 3 -11 -1 -7 -11 4
-10 -4 -25 -23 -41 -19 -16 -25 -26 -17 -29 6 -3 -1 -6 -16 -6 -20 -1 -30 -7
-34 -21 -3 -11 -12 -20 -19 -20 -8 0 -14 -9 -14 -20 0 -11 -5 -20 -10 -20 -6
0 -14 -8 -17 -17 -4 -10 -17 -26 -30 -36 -13 -10 -23 -24 -23 -32 0 -7 -12
-18 -27 -24 -16 -7 -41 -29 -56 -51 -18 -25 -33 -37 -42 -33 -10 3 -15 -1 -15
-14 0 -11 -11 -25 -25 -31 -14 -6 -25 -18 -25 -26 0 -9 -20 -30 -44 -48 -33
-24 -44 -38 -41 -53 3 -11 2 -14 -1 -7 -7 14 -24 16 -24 2 0 -6 -24 -34 -54
-63 -29 -28 -61 -69 -71 -90 -11 -24 -38 -52 -71 -75 -29 -20 -53 -43 -54 -49
0 -7 -11 -20 -24 -29 -16 -10 -23 -22 -19 -32 4 -14 3 -15 -6 -2 -8 12 -13 12
-23 2 -6 -6 -9 -12 -4 -12 4 0 -1 -13 -11 -30 -9 -16 -23 -30 -29 -30 -7 0
-15 -11 -18 -25 -4 -14 -13 -25 -21 -25 -16 0 -59 -40 -69 -65 -3 -9 -15 -19
-26 -22 -11 -3 -20 -11 -20 -17 0 -16 -92 -106 -108 -106 -7 0 -12 -8 -10 -17
2 -11 -8 -22 -24 -31 -16 -7 -28 -20 -28 -28 0 -7 -6 -14 -13 -14 -7 0 -29
-18 -47 -40 -18 -22 -37 -40 -42 -40 -19 0 -48 -37 -42 -53 4 -11 1 -17 -7
-17 -8 0 -25 -12 -38 -25 -13 -14 -28 -25 -35 -25 -6 0 -17 -14 -25 -31 -7
-17 -19 -28 -26 -25 -8 3 -11 -2 -8 -13 3 -11 -5 -24 -22 -35 -15 -10 -24 -13
-20 -6 5 8 3 11 -6 8 -7 -2 -16 -14 -19 -25 -7 -26 -76 -86 -90 -78 -5 3 -10
-1 -10 -11 0 -9 -11 -27 -25 -40 -14 -13 -25 -27 -25 -32 0 -6 -15 -23 -33
-39 -18 -16 -36 -37 -40 -47 -4 -9 -11 -15 -15 -12 -5 3 -19 -6 -31 -20 -12
-14 -27 -24 -34 -21 -12 4 -37 -16 -37 -29 0 -15 -194 -199 -207 -196 -7 2
-14 -2 -14 -8 -1 -5 -3 -14 -4 -20 -1 -5 -3 -14 -4 -20 0 -5 -8 -10 -16 -10
-8 0 -15 -4 -15 -10 0 -5 -7 -10 -16 -10 -8 0 -12 -4 -9 -10 3 -5 0 -7 -8 -4
-8 3 -18 -6 -25 -21 -7 -15 -20 -25 -32 -25 -11 0 -20 -4 -20 -9 0 -5 -9 -12
-20 -16 -11 -3 -19 -9 -19 -13 3 -19 -2 -32 -13 -32 -7 0 -32 -21 -56 -47 -24
-26 -49 -48 -55 -48 -7 -1 -23 -4 -37 -7 -14 -4 -51 -12 -83 -19 -31 -7 -62
-18 -68 -25 -6 -7 -17 -10 -24 -8 -8 3 -20 2 -27 -3 -7 -4 -46 -8 -85 -9 -59
0 -76 -4 -86 -19 -8 -10 -19 -15 -24 -12 -6 4 -13 1 -16 -6 -3 -9 -16 -12 -34
-10 -19 3 -36 -1 -46 -12 -9 -9 -21 -14 -27 -10 -5 3 -18 1 -29 -5 -11 -5 -33
-11 -48 -13 -16 -2 -35 -7 -43 -12 -9 -5 -15 -4 -18 5 -3 9 -9 7 -21 -8 -9
-12 -25 -23 -36 -25 -11 -2 -28 -7 -38 -12 -10 -4 -31 -5 -48 -1 -24 4 -42 -2
-86 -30 -39 -25 -63 -34 -79 -30 -12 3 -26 1 -29 -4 -4 -6 -10 -8 -14 -5 -5 2
-23 -3 -41 -12 -18 -9 -46 -16 -61 -15 -15 0 -33 -6 -40 -14 -6 -8 -22 -14
-35 -14 -12 0 -26 -5 -30 -11 -4 -7 -21 -9 -40 -6 -19 3 -32 2 -29 -2 9 -15
-19 -28 -90 -41 -38 -7 -82 -21 -97 -32 -15 -11 -51 -23 -80 -27 -29 -5 -54
-14 -56 -20 -2 -6 -11 -11 -21 -11 -9 0 -26 -7 -39 -15 -12 -9 -35 -17 -52
-18 -16 -1 -30 -7 -30 -14 0 -13 -35 -27 -49 -19 -5 4 -11 1 -13 -5 -2 -6 -16
-12 -31 -12 -15 -1 -27 -5 -27 -9 0 -5 -6 -8 -14 -8 -7 0 -19 -7 -26 -15 -8
-10 -24 -13 -46 -11 -25 3 -42 -2 -62 -18 -15 -13 -34 -23 -43 -23 -8 0 -36
-14 -62 -31 -25 -18 -53 -32 -63 -32 -15 0 -49 -9 -104 -28 -8 -3 -20 -4 -26
-3 -7 1 -14 -5 -17 -14 -5 -10 -15 -13 -37 -9 -24 5 -30 3 -30 -11 0 -10 -3
-15 -6 -12 -11 10 -44 -12 -44 -29 0 -10 -6 -14 -15 -10 -8 3 -21 -1 -29 -9
-8 -8 -25 -15 -38 -15 -34 0 -128 -49 -128 -67 0 -9 -8 -13 -24 -11 -15 2 -35
-7 -55 -24 -19 -18 -36 -25 -47 -21 -10 4 -22 0 -29 -10 -7 -9 -30 -21 -51
-25 -23 -5 -38 -14 -36 -21 1 -7 -2 -10 -8 -6 -6 3 -17 -1 -26 -9 -8 -9 -21
-16 -28 -16 -8 0 -19 -7 -26 -15 -7 -8 -21 -15 -32 -15 -30 0 -145 -58 -161
-81 -8 -11 -21 -21 -29 -23 -8 -1 -27 -10 -42 -19 -15 -10 -31 -15 -36 -12
-11 7 -40 -18 -40 -33 0 -6 -9 -8 -19 -5 -11 3 -27 -3 -38 -14 -32 -32 -71
-53 -87 -47 -9 3 -16 1 -16 -6 0 -6 -4 -8 -10 -5 -5 3 -20 -5 -32 -18 -21 -21
-50 -33 -100 -40 -9 -1 -26 -13 -37 -26 -18 -20 -21 -21 -21 -6 0 15 -4 14
-26 -9 -15 -14 -34 -26 -43 -27 -33 -1 -54 -8 -61 -19 -4 -6 -14 -8 -23 -4
-11 4 -17 1 -17 -8 0 -8 -18 -21 -40 -28 -21 -7 -38 -17 -37 -21 2 -10 -11
-18 -104 -68 -35 -18 -69 -41 -76 -50 -6 -9 -15 -13 -19 -9 -4 4 -15 -2 -25
-14 -21 -23 -64 -48 -85 -48 -8 0 -14 -4 -14 -9 0 -4 -29 -23 -65 -41 -36 -18
-65 -39 -65 -46 0 -8 -4 -14 -10 -14 -6 0 -19 -9 -30 -20 -12 -12 -25 -18 -30
-15 -6 4 -10 2 -10 -2 0 -11 -56 -40 -92 -49 -15 -3 -34 -17 -43 -30 -8 -13
-24 -24 -34 -24 -10 0 -24 -7 -31 -15 -7 -8 -16 -15 -21 -15 -5 0 -18 -9 -29
-20 -11 -11 -29 -20 -39 -20 -12 0 -18 -7 -17 -17 1 -13 -6 -18 -22 -17 -12 0
-22 -5 -22 -13 0 -7 -11 -13 -24 -13 -14 0 -37 -13 -53 -29 -20 -19 -37 -27
-55 -25 -16 1 -29 -3 -32 -13 -4 -8 -12 -13 -20 -10 -8 3 -18 -5 -25 -19 -6
-13 -17 -24 -24 -24 -8 0 -26 -13 -40 -30 -27 -30 -36 -34 -68 -31 -16 2 -69
-52 -69 -70 0 -5 -6 -9 -14 -9 -8 0 -22 -10 -30 -21 -8 -12 -21 -19 -29 -16
-7 3 -19 -4 -26 -14 -6 -11 -16 -17 -21 -14 -6 3 -10 1 -10 -4 0 -6 -11 -11
-24 -11 -17 0 -23 -5 -22 -17 1 -13 -5 -17 -22 -16 -13 2 -22 -3 -22 -11 0 -8
-17 -20 -37 -27 -21 -6 -53 -27 -71 -45 -23 -23 -42 -34 -62 -34 -25 0 -30 -4
-30 -25 0 -14 -5 -25 -11 -25 -5 0 -7 5 -3 11 3 6 -11 -1 -32 -15 -22 -14 -50
-32 -64 -38 -14 -7 -29 -18 -33 -25 -4 -7 -12 -13 -17 -13 -5 0 -21 -11 -36
-25 -15 -14 -33 -25 -40 -25 -7 0 -33 -20 -58 -45 -24 -25 -58 -48 -74 -51
-18 -4 -34 -15 -40 -29 -6 -13 -23 -30 -39 -38 -15 -9 -50 -27 -78 -42 -83
-43 -99 -53 -112 -71 -7 -10 -15 -15 -18 -12 -3 2 -29 -17 -58 -44 -28 -27
-67 -55 -85 -63 -18 -8 -35 -21 -38 -30 -3 -8 -12 -15 -20 -15 -8 0 -14 -4
-14 -9 0 -5 -8 -12 -17 -15 -22 -8 -56 -28 -76 -44 -8 -7 -19 -12 -23 -10 -5
1 -23 -11 -41 -27 -18 -17 -51 -46 -74 -65 -23 -19 -58 -52 -78 -73 -19 -21
-41 -35 -48 -33 -7 3 -17 -3 -23 -13 -5 -10 -20 -21 -33 -25 -13 -3 -57 -38
-98 -77 -73 -70 -151 -129 -170 -129 -5 0 -15 -11 -21 -25 -6 -14 -15 -25 -20
-25 -5 0 -22 -14 -38 -30 -17 -17 -34 -29 -38 -26 -5 3 -16 -4 -25 -15 -9 -10
-26 -19 -37 -19 -11 0 -20 -6 -20 -14 0 -8 -14 -24 -30 -37 -17 -13 -39 -39
-50 -57 -11 -18 -24 -31 -29 -28 -5 3 -16 -5 -25 -19 -9 -14 -29 -28 -44 -32
-15 -3 -35 -17 -45 -30 -10 -13 -25 -23 -32 -23 -8 0 -12 -6 -10 -12 3 -7 -8
-22 -24 -33 -16 -10 -27 -23 -24 -28 2 -4 -7 -5 -20 -2 -20 5 -25 3 -24 -10 1
-10 -7 -22 -17 -29 -11 -6 -35 -27 -54 -46 -20 -19 -41 -34 -48 -32 -7 1 -21
-9 -30 -23 -9 -14 -23 -25 -30 -25 -8 0 -14 -4 -14 -9 0 -18 -51 -70 -64 -65
-9 3 -18 -6 -24 -26 -6 -16 -21 -34 -34 -40 -13 -5 -19 -9 -15 -9 12 -1 -55
-67 -76 -74 -11 -4 -21 -16 -24 -27 -3 -11 -11 -20 -18 -20 -7 0 -30 -21 -51
-47 -47 -59 -85 -93 -102 -93 -7 0 -11 -4 -8 -8 6 -10 -38 -54 -71 -71 -12 -6
-20 -17 -17 -24 5 -14 -42 -45 -52 -34 -8 7 -44 -36 -44 -52 0 -6 -3 -11 -8
-11 -4 0 -13 -14 -21 -31 -8 -18 -16 -26 -20 -20 -4 6 -17 -6 -32 -29 -13 -22
-28 -40 -34 -40 -5 0 -21 -17 -35 -38 -14 -20 -33 -43 -42 -50 -9 -7 -24 -19
-32 -27 -8 -8 -19 -15 -25 -15 -6 0 -11 -4 -11 -10 0 -5 -56 -66 -125 -135
-69 -69 -125 -129 -125 -134 0 -5 -7 -11 -15 -15 -8 -3 -15 -13 -15 -21 0 -9
-4 -14 -9 -10 -5 3 -17 -8 -27 -24 -10 -16 -28 -35 -41 -42 -13 -7 -23 -18
-23 -26 0 -7 -7 -13 -16 -13 -13 0 -14 -3 -5 -14 10 -12 8 -13 -8 -9 -14 4
-23 -1 -28 -13 -4 -11 -11 -23 -15 -29 -5 -5 -17 -21 -28 -34 -11 -13 -20 -31
-20 -40 0 -12 -3 -12 -12 -3 -17 17 -27 15 -21 -6 2 -10 -3 -24 -11 -31 -9 -8
-16 -22 -16 -32 0 -11 -5 -19 -12 -19 -10 0 -78 -66 -78 -76 0 -8 -47 -51 -62
-57 -10 -3 -18 -16 -18 -27 0 -12 -7 -20 -17 -20 -15 0 -16 -2 -3 -10 12 -8
12 -11 -3 -28 -9 -10 -17 -22 -17 -27 0 -4 -31 -39 -70 -78 -38 -38 -70 -74
-70 -80 0 -14 -50 -88 -70 -104 -8 -7 -11 -13 -7 -13 4 0 3 -9 -3 -20 -7 -12
-16 -18 -23 -13 -8 4 -7 1 1 -9 12 -15 10 -19 -15 -32 -16 -8 -41 -37 -57 -65
-15 -28 -31 -51 -37 -51 -5 0 -9 -7 -9 -15 0 -8 -10 -23 -22 -35 -12 -11 -18
-20 -14 -20 4 0 -8 -23 -28 -50 -20 -28 -36 -59 -36 -71 0 -31 -20 -61 -36
-55 -7 3 -13 1 -11 -3 1 -5 -2 -10 -8 -12 -19 -6 -33 -24 -23 -30 5 -4 -4 -16
-21 -28 -22 -16 -31 -31 -31 -50 0 -42 -28 -91 -76 -137 -24 -22 -44 -46 -44
-53 0 -6 -12 -29 -26 -51 -14 -21 -23 -44 -19 -49 3 -6 1 -11 -4 -11 -6 0 -11
-7 -11 -15 0 -8 -4 -15 -9 -15 -5 0 -15 -16 -22 -35 -7 -19 -17 -35 -21 -35
-4 0 -8 -11 -8 -25 0 -14 -5 -25 -11 -25 -6 0 -9 -7 -5 -15 3 -8 2 -15 -2 -15
-8 0 -23 -26 -42 -72 -7 -16 -16 -28 -22 -28 -6 0 -8 -7 -4 -15 3 -9 0 -15 -9
-15 -8 0 -15 -9 -15 -20 0 -12 -9 -30 -20 -42 -11 -12 -20 -35 -20 -51 0 -44
-58 -135 -76 -119 -4 4 -4 -1 -1 -11 4 -9 2 -17 -5 -17 -6 0 -8 -11 -5 -30 4
-16 3 -32 -2 -35 -5 -2 -12 -20 -15 -39 -8 -40 -31 -89 -50 -105 -9 -8 -12
-24 -9 -50 5 -40 -11 -86 -28 -76 -5 4 -9 -3 -9 -14 0 -10 6 -22 13 -24 6 -3
3 -6 -8 -6 -14 -1 -26 -13 -37 -36 -8 -19 -12 -35 -8 -35 12 0 -5 -63 -24 -93
-11 -16 -15 -34 -11 -47 5 -15 2 -20 -11 -20 -13 0 -15 -3 -7 -11 11 -11 2
-40 -17 -59 -7 -7 -11 -39 -11 -87 0 -27 -6 -43 -15 -47 -8 -3 -14 -14 -14
-24 0 -11 -6 -35 -14 -53 -10 -25 -12 -56 -7 -112 4 -43 3 -81 -2 -84 -5 -3
-6 -11 -3 -18 2 -7 -2 -16 -10 -19 -19 -7 -18 -26 1 -26 18 0 18 -1 5 -35 -8
-21 -6 -31 11 -54 11 -16 21 -45 22 -69 1 -27 6 -42 14 -42 11 0 19 -24 11
-33 -2 -1 16 -19 38 -40 23 -20 52 -53 65 -72 13 -19 30 -35 37 -35 6 0 12 -6
12 -12 1 -24 39 -58 72 -65 18 -3 36 -11 40 -17 4 -5 23 -10 42 -9 20 1 39 -3
42 -8 3 -6 15 -7 25 -4 11 4 26 1 34 -5 16 -13 95 -21 95 -9 0 3 18 9 40 13
22 3 40 10 40 14 0 5 7 9 15 10 8 1 21 3 29 4 8 1 12 7 9 15 -3 9 3 13 20 13
16 0 41 14 64 36 40 38 129 84 161 84 11 0 31 16 46 38 15 22 39 45 54 53 15
7 43 23 62 35 19 11 41 19 49 16 8 -3 11 0 7 6 -3 6 3 13 14 17 11 3 34 21 51
40 18 18 37 31 44 29 6 -3 22 9 35 26 13 16 27 30 32 30 12 0 131 82 141 97 4
7 14 13 22 13 8 0 39 20 69 45 31 25 61 45 66 45 6 0 9 4 6 8 -3 4 8 13 25 19
22 9 28 8 23 0 -5 -9 -3 -8 6 0 9 8 19 9 31 2 14 -7 17 -6 14 3 -3 7 6 27 20
43 53 63 97 106 102 102 4 -5 61 28 89 52 7 6 15 7 18 4 3 -4 6 -1 6 5 0 6 7
9 15 6 11 -5 13 -2 9 10 -4 10 0 18 11 22 13 6 14 9 3 16 -9 7 -7 8 9 5 16 -4
24 1 28 14 4 10 13 19 22 19 8 0 28 14 44 31 19 20 35 29 45 25 11 -4 15 -2
11 8 -4 9 3 16 18 20 13 3 43 25 68 48 60 58 85 78 97 78 6 0 10 5 10 10 0 6
8 10 19 10 25 0 47 26 29 33 -7 3 0 6 15 6 18 1 40 13 60 34 18 18 58 49 90
70 32 21 60 44 64 52 3 8 10 15 17 15 18 1 56 37 56 53 0 17 27 30 41 21 5 -3
9 -2 8 3 -4 23 4 31 36 37 35 7 46 20 23 29 -7 2 -1 8 13 12 21 5 26 11 21 28
-5 20 -4 21 12 8 9 -8 16 -10 14 -5 -3 8 36 54 46 54 12 0 106 64 106 72 0 4
15 16 32 24 18 9 49 36 68 60 19 23 43 43 53 43 9 1 17 6 17 11 0 6 7 10 15
10 18 0 58 37 68 63 3 9 14 17 22 17 19 0 45 23 45 39 0 6 7 11 16 11 9 0 29
12 43 28 15 15 39 33 54 39 15 7 27 17 27 23 0 6 11 15 25 20 14 5 30 21 35
35 6 16 17 25 31 25 13 0 38 17 60 40 21 22 45 40 53 40 7 0 17 7 20 16 3 9
13 14 21 10 8 -3 17 -1 20 4 4 6 1 10 -4 10 -6 0 -11 5 -11 11 0 6 9 8 20 4
13 -4 22 -1 26 9 3 9 14 16 23 17 9 0 11 3 4 6 -8 3 -3 14 14 31 15 15 30 27
34 27 15 0 79 58 79 71 0 8 7 14 15 14 8 0 15 3 15 8 0 4 16 18 34 30 22 15
33 29 29 38 -4 10 0 12 11 8 9 -4 18 0 22 9 3 8 17 18 31 22 15 3 38 15 51 26
14 10 31 19 38 19 8 0 14 5 14 11 0 17 113 119 131 119 9 0 24 11 33 25 9 14
23 25 31 25 8 0 15 4 15 9 0 5 13 14 29 19 16 6 40 25 54 44 15 19 47 44 71
57 25 12 54 33 64 45 10 13 27 25 38 27 10 2 24 14 29 27 8 17 16 21 32 17 16
-4 23 -1 23 10 0 8 6 15 14 15 8 0 18 5 22 12 5 7 3 8 -7 3 -8 -5 2 8 21 28
19 20 39 36 45 34 6 -1 32 18 58 42 26 24 60 52 76 62 16 9 32 22 35 28 4 6
16 11 27 11 16 0 19 5 14 20 -4 13 -2 20 7 20 19 1 68 46 68 63 0 8 12 18 26
21 30 8 94 64 91 79 -2 10 4 13 37 16 15 1 67 51 111 105 16 20 37 36 47 36
10 0 18 4 18 8 0 10 53 50 72 54 12 3 19 7 52 36 8 6 19 12 24 12 5 0 14 12
21 26 7 17 17 24 26 20 8 -3 15 -1 15 4 0 29 90 100 127 100 8 0 12 4 9 8 -7
12 43 66 92 97 31 20 39 31 30 36 -9 6 -7 9 9 9 16 0 20 5 16 20 -4 15 -2 19
10 14 10 -3 20 2 27 15 6 12 17 21 24 21 7 0 25 10 39 22 14 13 44 39 67 58
22 19 38 40 36 46 -2 6 17 22 42 34 46 23 135 100 116 100 -5 0 -1 5 9 11 9 5
17 17 17 24 0 9 10 15 24 15 15 0 26 7 29 20 3 14 14 20 31 20 14 0 26 5 26
10 0 6 8 13 17 17 21 7 73 63 73 79 0 12 42 34 65 34 8 0 15 4 15 9 0 14 77
91 90 91 7 0 34 21 60 48 112 108 130 123 140 117 5 -3 10 3 10 14 0 11 11 27
23 36 13 8 29 25 36 38 6 12 28 33 48 45 29 19 37 21 44 10 7 -10 9 -10 9 2 0
8 16 28 35 43 19 15 35 34 35 42 0 8 9 15 20 15 11 0 20 7 20 15 0 8 6 15 13
15 8 0 19 11 25 25 6 14 18 25 26 25 7 0 32 18 55 40 22 22 46 40 52 40 6 0 9
9 6 19 -3 13 -1 18 8 14 8 -3 25 12 41 36 21 33 30 39 40 30 11 -9 14 -8 14 2
0 17 124 139 141 139 11 0 189 179 189 190 0 4 16 20 35 37 19 17 35 27 35 22
0 -5 25 15 55 46 31 30 60 55 66 55 5 0 9 6 7 12 -3 16 32 58 48 58 6 0 24 12
40 27 16 15 36 28 44 30 8 1 16 7 18 12 2 6 10 11 18 11 7 0 21 12 31 28 25
38 66 73 80 67 7 -2 13 1 13 9 0 12 76 79 93 82 4 1 12 2 18 3 5 0 7 6 4 11
-3 6 -1 10 4 10 6 0 11 5 11 11 0 7 11 22 25 35 14 13 25 30 25 39 0 8 5 15
11 15 6 0 22 14 36 30 14 17 28 29 30 26 3 -2 21 13 40 35 19 21 39 39 44 39
5 0 18 8 28 17 11 10 33 29 51 43 30 24 63 55 86 82 6 7 20 20 30 28 11 9 31
30 46 48 15 18 33 31 40 30 8 -2 14 8 16 24 2 19 8 25 18 21 8 -3 14 0 14 6 0
6 -5 11 -11 11 -5 0 -8 4 -5 9 3 5 14 7 25 4 12 -3 20 2 23 15 3 11 17 21 36
25 17 3 40 16 51 28 21 22 54 44 83 55 9 3 19 17 22 30 4 13 11 24 16 24 5 0
23 20 41 45 17 24 35 42 39 40 3 -2 12 12 19 31 9 24 18 34 27 30 8 -3 14 1
14 10 0 8 13 17 31 21 17 3 40 18 51 33 11 16 32 31 47 34 14 3 37 21 51 39
13 19 31 34 40 33 8 -1 14 5 13 11 -2 7 3 13 10 13 21 0 37 16 42 39 8 43 16
61 28 61 7 0 25 13 40 29 15 17 38 33 50 37 31 9 67 44 67 66 0 10 3 18 8 18
4 0 19 11 34 25 16 14 28 20 30 13 5 -14 88 71 88 89 0 7 3 12 8 11 4 -1 20 5
35 12 20 10 24 16 15 22 -10 6 -9 8 3 8 9 0 19 7 23 15 3 8 11 15 17 15 6 0
48 37 93 83 97 98 143 137 162 137 8 0 14 6 14 13 0 7 9 18 20 25 11 7 20 19
20 27 0 8 4 15 10 15 5 0 20 10 33 23 13 12 45 40 72 62 27 22 55 49 64 59 9
10 25 26 35 35 10 9 28 27 40 39 12 13 42 39 69 58 26 19 47 41 47 50 0 10 6
14 14 11 8 -3 17 0 20 8 2 7 17 19 33 27 15 7 28 20 28 28 0 8 10 19 23 25 12
5 20 16 17 22 -2 7 0 13 4 13 5 0 12 -6 14 -12 3 -7 6 -1 6 14 1 18 5 26 14
22 7 -2 19 7 27 21 7 14 17 25 22 25 5 0 34 16 64 35 30 19 58 35 63 35 4 0
20 12 34 26 14 14 31 24 39 22 12 -3 34 18 111 105 22 25 108 53 121 40 2 -3
14 5 25 16 14 14 34 21 64 22 55 1 84 5 137 19 24 6 58 9 77 5 25 -4 35 -2 39
9 4 11 14 14 31 10 16 -4 28 -2 33 6 7 11 16 11 49 -2 23 -9 41 -12 41 -7 0 5
28 9 63 10 34 0 105 6 157 13 52 7 100 10 105 7 6 -3 21 -7 35 -8 14 -1 52 -4
85 -7 33 -3 72 -8 88 -11 15 -2 27 -1 27 3 0 4 31 5 69 2 38 -3 84 -2 103 2
19 4 35 2 39 -3 3 -6 39 -11 80 -11 42 0 86 -6 103 -14 16 -8 35 -14 42 -14 7
0 14 -5 16 -11 2 -5 20 -11 40 -12 20 -1 34 -5 33 -8 -5 -7 57 -44 68 -41 4 1
5 -17 2 -40 -4 -32 -14 -50 -38 -70 -17 -16 -37 -28 -42 -28 -6 0 -21 -8 -35
-17 -13 -9 -35 -18 -49 -19 -14 -2 -27 -8 -29 -13 -6 -18 -102 -81 -123 -81
-11 0 -32 -9 -46 -20 -14 -11 -34 -20 -45 -20 -10 0 -21 -6 -24 -14 -3 -8 -18
-16 -33 -19 -16 -3 -41 -17 -57 -30 -16 -13 -34 -22 -40 -20 -6 2 -29 -14 -52
-36 -25 -24 -43 -35 -46 -28 -2 7 -5 4 -5 -6 -1 -10 -5 -15 -11 -12 -5 3 -20
-1 -32 -9 -12 -9 -30 -16 -40 -16 -10 0 -27 -9 -39 -21 -11 -11 -23 -18 -26
-15 -4 3 -21 -5 -39 -19 -18 -14 -44 -25 -58 -25 -15 0 -34 -9 -44 -21 -9 -11
-27 -32 -39 -46 -12 -15 -33 -27 -47 -29 -14 -1 -33 -10 -42 -18 -15 -16 -28
-20 -51 -17 -7 1 -13 -3 -13 -9 0 -5 -9 -10 -21 -10 -11 0 -41 -21 -67 -49
-26 -26 -57 -52 -69 -55 -13 -4 -23 -12 -23 -17 0 -5 -8 -9 -18 -9 -9 0 -39
-20 -66 -45 -27 -24 -52 -42 -56 -40 -4 3 -13 -2 -20 -10 -7 -8 -17 -15 -22
-15 -5 0 -20 -12 -34 -27 -14 -15 -32 -28 -40 -29 -9 -1 -23 -9 -32 -16 -10
-8 -30 -19 -45 -26 -15 -6 -30 -19 -33 -27 -4 -8 -12 -15 -19 -15 -17 0 -100
-47 -115 -65 -7 -8 -18 -15 -26 -15 -7 0 -27 -14 -44 -30 -17 -17 -41 -30 -54
-30 -13 0 -28 -9 -35 -22 -13 -26 -73 -68 -95 -68 -8 0 -17 -4 -20 -9 -3 -4
-18 -11 -34 -14 -15 -3 -44 -21 -64 -41 -20 -19 -68 -51 -107 -71 -39 -20 -71
-42 -71 -50 0 -7 -10 -15 -23 -19 -13 -3 -29 -17 -35 -31 -6 -14 -18 -25 -27
-25 -22 0 -55 -32 -55 -53 0 -14 -4 -16 -17 -9 -19 11 -83 -22 -83 -44 0 -8
-3 -13 -7 -12 -17 5 -54 -24 -49 -37 3 -9 0 -12 -8 -9 -8 3 -17 1 -20 -5 -4
-6 -12 -8 -19 -5 -7 2 -23 -6 -37 -18 -39 -35 -90 -70 -106 -72 -8 -1 -20 -8
-26 -14 -7 -7 -17 -12 -24 -12 -6 0 -14 -6 -17 -14 -3 -8 -31 -26 -61 -41 -39
-19 -56 -33 -56 -47 0 -10 -4 -17 -9 -13 -5 3 -12 -4 -16 -15 -3 -11 -13 -20
-21 -20 -8 0 -14 -4 -14 -10 0 -5 -8 -10 -17 -10 -10 0 -29 -14 -42 -30 -13
-17 -28 -30 -35 -30 -6 0 -20 -14 -31 -30 -11 -16 -25 -30 -31 -30 -6 0 -19
-9 -29 -20 -11 -13 -25 -18 -37 -14 -11 3 -20 0 -24 -10 -3 -9 -28 -29 -55
-45 -56 -35 -90 -67 -81 -76 3 -3 -4 -8 -16 -12 -16 -4 -21 -11 -17 -22 4 -13
-5 -21 -31 -31 -19 -8 -40 -23 -45 -32 -6 -10 -14 -16 -18 -14 -4 3 -18 -8
-30 -25 -12 -16 -26 -27 -32 -24 -11 8 -106 -56 -198 -132 -36 -29 -69 -53
-74 -53 -5 0 -7 -6 -4 -14 5 -11 -24 -46 -39 -46 -3 0 -16 -12 -30 -27 -14
-16 -29 -28 -32 -28 -15 -1 -82 -51 -82 -61 0 -11 -29 -25 -55 -28 -5 -1 -18
-18 -27 -38 -9 -21 -28 -43 -43 -50 -14 -6 -25 -14 -25 -18 0 -4 -14 -13 -30
-20 -16 -7 -30 -16 -30 -21 0 -5 -12 -17 -28 -27 -15 -9 -28 -23 -30 -31 -2
-8 -26 -35 -55 -60 -28 -25 -82 -76 -120 -113 -37 -38 -70 -68 -73 -68 -16 0
-74 -48 -74 -61 0 -9 -7 -22 -15 -29 -8 -7 -15 -18 -15 -25 0 -6 -11 -17 -25
-23 -16 -7 -23 -17 -19 -27 3 -8 1 -15 -5 -15 -6 0 -16 -11 -21 -25 -5 -14
-16 -25 -24 -25 -10 0 -13 -6 -10 -15 5 -11 -1 -15 -21 -15 -19 0 -26 -4 -22
-14 3 -8 -5 -19 -18 -26 -13 -7 -26 -24 -30 -38 -6 -24 -118 -142 -135 -142
-5 0 -14 -8 -19 -17 -6 -11 -11 -13 -11 -5 0 21 -20 3 -20 -19 0 -34 -71 -149
-92 -149 -16 0 -50 -36 -63 -67 -8 -18 -20 -33 -28 -33 -7 0 -21 -15 -30 -32
-10 -18 -26 -46 -37 -63 -10 -16 -27 -45 -36 -63 -9 -19 -23 -36 -30 -39 -7
-2 -15 -17 -19 -31 -3 -15 -28 -51 -55 -81 -27 -30 -47 -58 -44 -63 3 -4 -2
-11 -10 -14 -9 -3 -16 -12 -16 -19 0 -7 -13 -27 -30 -45 -16 -18 -30 -40 -30
-50 0 -10 -8 -26 -17 -36 -10 -10 -18 -22 -19 -28 -1 -26 -16 -56 -25 -50 -6
3 -7 -5 -3 -20 5 -21 1 -32 -20 -51 -17 -15 -26 -35 -26 -53 0 -16 -6 -35 -14
-42 -8 -6 -12 -18 -9 -26 3 -8 0 -14 -6 -14 -13 0 -61 -103 -61 -131 0 -11 -4
-19 -10 -19 -12 0 -33 -77 -24 -92 4 -7 3 -8 -4 -4 -7 4 -12 1 -12 -7 0 -8 -9
-17 -19 -20 -13 -3 -24 -19 -30 -45 -6 -22 -18 -45 -26 -52 -8 -7 -12 -16 -9
-22 3 -5 -1 -23 -9 -41 -12 -26 -45 -195 -52 -267 0 -9 -4 -20 -8 -27 -4 -6
-4 -18 -1 -27 3 -9 0 -23 -7 -32 -7 -9 -14 -41 -15 -72 -1 -32 -5 -65 -9 -76
-5 -11 -3 -27 3 -37 7 -10 9 -24 6 -32 -3 -8 1 -19 9 -25 16 -14 11 -59 -9
-82 -14 -17 -9 -83 7 -88 5 -2 7 -8 4 -13 -3 -4 1 -19 10 -32 8 -13 13 -26 10
-29 -3 -3 1 -18 10 -34 8 -16 15 -37 15 -47 0 -10 10 -22 23 -27 12 -5 16 -9
10 -9 -20 -1 -15 -21 10 -45 32 -31 77 -85 77 -92 0 -10 63 -99 77 -107 7 -4
13 -13 13 -19 0 -13 47 -58 61 -58 5 0 9 -4 9 -10 0 -5 5 -10 11 -10 14 0 43
-29 36 -36 -8 -8 36 -49 49 -46 7 1 14 -5 18 -13 3 -9 10 -14 16 -10 5 3 24
-2 41 -11 18 -9 50 -16 71 -16 27 1 38 -4 38 -14 0 -9 10 -14 29 -14 16 0 31
-6 35 -15 3 -9 12 -12 21 -9 9 4 26 2 38 -4 12 -6 67 -16 122 -23 55 -6 107
-17 115 -24 9 -8 40 -12 78 -11 34 0 63 -2 65 -6 1 -4 28 -8 60 -9 32 -1 60
-6 63 -11 3 -4 9 -6 14 -3 5 3 11 1 15 -5 8 -12 72 -13 79 -1 10 15 182 36
190 22 7 -11 52 2 107 30 20 11 45 19 56 19 11 0 22 3 26 6 3 3 27 8 54 10 26
3 54 5 61 6 6 1 12 6 12 11 0 17 40 45 74 51 19 4 37 13 40 22 3 8 10 13 15
10 13 -9 61 15 61 30 0 6 12 16 28 22 15 5 40 21 55 36 15 14 34 26 41 26 8 0
16 7 20 15 3 8 13 15 21 15 9 0 23 7 31 15 9 8 26 15 39 15 14 0 29 9 35 20 6
11 15 20 20 20 6 0 38 19 71 42 33 24 69 48 80 54 10 6 27 18 37 27 10 10 21
17 25 17 3 0 19 12 34 26 15 14 45 35 66 45 21 11 56 38 77 59 22 22 47 40 55
40 8 0 28 12 44 27 65 62 79 73 88 73 5 0 27 16 49 36 21 19 51 43 67 52 15 9
30 25 33 35 3 10 11 16 17 14 7 -2 21 9 33 24 11 16 24 26 27 22 4 -3 10 3 14
13 4 10 12 25 19 31 13 13 62 36 79 37 5 1 43 34 84 74 42 39 79 72 83 72 4 0
8 6 8 14 0 13 34 30 53 27 5 -1 6 3 3 8 -4 5 16 34 44 63 27 29 50 49 50 44 0
-5 11 3 25 18 13 14 29 26 36 26 12 0 59 49 59 62 0 3 16 12 35 18 19 6 46 26
60 43 60 74 90 107 145 162 22 22 40 45 40 50 0 12 74 95 84 95 12 0 76 63 76
74 0 5 15 24 32 41 50 49 86 94 80 100 -3 3 -1 5 5 5 14 0 53 35 53 47 0 5 11
15 25 21 14 6 25 19 25 27 0 9 4 14 9 10 11 -6 51 33 51 51 0 6 11 19 25 28
14 9 37 35 53 58 15 24 35 51 45 61 11 11 16 25 12 38 -4 13 -2 19 9 19 8 0
20 8 25 19 6 10 27 26 47 36 41 19 114 89 114 109 0 20 39 66 56 66 9 0 12 5
8 12 -4 6 -1 16 7 22 8 6 25 25 38 41 12 17 28 30 33 30 6 0 16 9 22 20 6 11
26 37 44 58 17 20 32 41 32 45 0 4 14 16 32 27 18 10 27 20 22 22 -6 2 4 20
23 39 18 19 33 39 33 44 0 5 25 33 55 63 30 29 55 59 55 66 0 11 3 11 17 0 15
-13 15 -12 5 7 -9 16 -8 26 4 43 9 12 19 19 24 16 5 -3 14 4 20 15 6 11 15 18
20 15 5 -3 18 15 29 40 11 25 26 45 34 45 16 0 27 21 27 51 0 10 4 19 9 19 11
0 24 38 21 62 -1 10 4 18 10 18 6 0 8 -4 5 -10 -3 -5 -2 -10 4 -10 5 0 12 8
15 18 4 10 26 37 51 61 25 24 45 49 45 56 0 7 9 24 21 39 11 14 19 26 17 26
-3 0 15 21 38 46 24 25 46 59 49 76 4 18 15 32 26 35 14 4 17 9 9 18 -8 9 -5
14 10 18 11 3 20 12 20 21 0 9 5 16 10 16 6 0 10 6 10 13 0 6 27 41 60 76 37
39 57 68 51 74 -11 11 17 47 36 47 13 0 35 34 27 42 -2 3 10 20 28 39 45 47
88 110 88 131 0 11 5 15 15 12 11 -5 13 -2 9 10 -3 9 -1 16 5 16 7 0 11 6 9
13 -3 14 1 19 61 88 23 25 41 51 41 57 0 17 39 89 56 103 8 7 22 28 30 47 8
19 22 41 32 48 9 7 13 14 8 14 -5 0 -3 7 4 15 6 8 9 19 5 25 -3 5 1 10 9 10 9
0 16 5 16 11 0 5 4 7 10 4 6 -4 9 4 7 17 -1 14 3 22 10 21 7 -2 10 4 7 12 -4
9 -1 28 5 43 6 15 12 37 14 49 2 13 13 34 25 48 12 14 22 29 22 34 0 4 13 28
30 52 16 24 30 56 30 72 0 15 4 27 10 27 5 0 7 6 4 14 -3 8 3 15 13 18 12 3
19 16 21 35 3 39 39 123 57 129 7 3 11 14 8 24 -3 11 5 28 18 41 13 13 22 31
21 41 -2 9 2 26 7 37 8 14 8 20 0 23 -8 3 -2 19 14 45 14 22 23 44 20 47 -4 3
1 6 10 6 12 0 17 8 17 26 0 14 9 37 20 51 12 16 18 34 14 45 -3 10 -1 33 5 51
6 17 12 52 14 77 1 25 7 52 12 60 5 8 10 37 12 63 1 27 7 55 14 64 7 8 12 37
12 64 0 27 4 52 9 55 5 3 5 11 -2 18 -7 9 -7 22 0 43 6 17 10 34 9 39 -2 10 7
38 24 74 10 19 19 24 40 22 19 -3 27 1 27 12 0 20 14 20 30 1 11 -13 14 -13
26 2 11 15 15 16 23 4 7 -11 15 -11 39 -3 30 10 99 -2 118 -21 4 -4 26 -7 49
-7 26 0 48 -6 55 -15 7 -8 16 -12 20 -10 10 6 60 -41 60 -55 0 -6 7 -10 15
-10 18 0 37 -43 29 -65 -4 -9 1 -24 10 -34 9 -9 19 -40 22 -67 6 -53 32 -114
49 -114 5 0 4 -4 -3 -8 -9 -6 -7 -13 8 -30 11 -11 17 -28 14 -36 -3 -9 -1 -16
5 -16 6 0 8 -7 5 -15 -4 -8 -1 -22 5 -29 7 -8 11 -20 10 -28 -2 -17 23 -78 33
-78 4 0 8 -8 8 -18 0 -10 5 -23 11 -29 5 -5 11 -21 13 -34 2 -13 10 -40 18
-60 9 -20 19 -51 23 -68 4 -18 13 -44 21 -59 8 -15 14 -35 14 -44 0 -10 3 -18
8 -18 4 0 7 -20 8 -45 1 -48 -7 -56 -64 -61 -70 -6 -138 -40 -193 -96 -15 -16
-32 -28 -38 -28 -6 0 -11 -5 -11 -11 0 -6 -6 -9 -14 -6 -21 8 -43 -22 -50 -67
-4 -21 -9 -43 -12 -48 -3 -5 -1 -15 5 -21 5 -7 10 -22 10 -32 -2 -54 12 -128
30 -169 12 -25 21 -48 21 -52 0 -4 11 -22 25 -39 13 -18 21 -35 18 -38 -3 -4
6 -12 21 -18 14 -7 26 -16 26 -20 0 -4 16 -13 35 -19 19 -6 35 -16 35 -21 0
-5 4 -9 9 -9 12 0 61 -44 61 -55 0 -4 11 -21 26 -37 16 -20 23 -37 18 -47 -4
-9 -6 -26 -5 -38 0 -13 -4 -23 -9 -23 -6 0 -10 -7 -10 -15 0 -14 -12 -19 -32
-16 -5 0 -8 -8 -8 -19 0 -11 -7 -20 -15 -20 -9 0 -20 -12 -26 -27 -22 -61 -47
-104 -53 -91 -3 7 -5 2 -4 -12 3 -28 -64 -106 -82 -95 -5 3 -10 1 -10 -5 0 -7
-13 -25 -30 -40 -16 -15 -30 -31 -30 -35 0 -4 -21 -29 -47 -55 -62 -64 -78
-83 -86 -104 -4 -9 -11 -14 -17 -11 -5 3 -10 0 -10 -8 0 -7 -11 -19 -24 -26
-13 -7 -29 -23 -36 -35 -16 -30 -89 -78 -107 -72 -11 4 -13 2 -9 -9 4 -10 -3
-19 -18 -26 -13 -6 -30 -22 -37 -35 -7 -13 -16 -24 -21 -24 -4 0 -8 -8 -8 -19
0 -21 -39 -51 -66 -51 -10 0 -14 -3 -11 -7 7 -6 -72 -83 -85 -83 -5 0 -8 -7
-8 -15 0 -9 -7 -18 -15 -21 -8 -4 -15 -11 -15 -16 0 -5 -33 -42 -73 -81 -40
-40 -76 -80 -80 -89 -3 -10 -14 -18 -23 -18 -10 0 -14 -5 -10 -16 3 -8 2 -13
-3 -10 -5 3 -15 -2 -22 -11 -12 -14 -12 -16 0 -8 10 5 12 4 7 -4 -4 -6 -21
-18 -39 -27 -17 -9 -37 -23 -45 -30 -7 -8 -19 -14 -25 -14 -7 0 -30 -20 -51
-44 -21 -25 -44 -42 -51 -40 -6 3 -29 -18 -50 -45 -21 -28 -41 -48 -45 -46 -4
2 -13 -7 -20 -20 -7 -14 -19 -25 -26 -25 -7 0 -18 -9 -24 -20 -6 -10 -16 -17
-24 -14 -7 3 -16 -2 -20 -11 -3 -10 -12 -15 -20 -12 -8 3 -19 -5 -27 -20 -7
-13 -26 -34 -41 -45 -16 -11 -25 -24 -22 -30 4 -6 2 -8 -4 -4 -6 3 -20 -7 -32
-24 -12 -16 -28 -30 -36 -30 -8 0 -14 -7 -14 -16 0 -10 -6 -14 -14 -11 -9 4
-24 -7 -38 -25 -13 -18 -49 -57 -80 -88 -32 -31 -58 -62 -58 -69 0 -7 -4 -10
-9 -6 -5 3 -25 -10 -44 -30 -19 -19 -37 -35 -40 -35 -3 0 -19 -12 -36 -27 -17
-16 -49 -44 -71 -63 -64 -54 -110 -101 -110 -112 0 -5 -4 -7 -9 -4 -5 3 -16
-5 -25 -19 -9 -14 -21 -25 -26 -25 -6 0 -37 -27 -70 -60 -33 -33 -65 -60 -71
-60 -5 0 -43 -34 -83 -75 -40 -42 -75 -72 -80 -68 -4 4 -4 0 -1 -8 4 -10 -10
-32 -38 -60 -24 -25 -41 -51 -39 -58 3 -8 0 -11 -5 -8 -11 7 -63 -36 -63 -53
0 -16 -37 -69 -67 -96 -12 -12 -23 -28 -23 -37 0 -9 -13 -31 -30 -49 -16 -18
-30 -38 -30 -46 0 -7 -7 -15 -15 -18 -10 -4 -13 -13 -10 -25 4 -13 2 -17 -7
-14 -8 3 -29 -17 -52 -49 -22 -30 -52 -64 -68 -76 -21 -16 -28 -29 -28 -55 0
-19 -4 -35 -9 -35 -5 0 -12 -9 -16 -19 -3 -11 -15 -23 -26 -26 -11 -4 -19 -14
-17 -23 3 -21 -23 -62 -39 -62 -8 0 -13 -14 -13 -36 0 -43 -9 -61 -56 -111
-24 -26 -34 -45 -31 -61 2 -12 -1 -26 -7 -30 -25 -15 -56 -71 -56 -101 0 -17
-4 -39 -9 -49 -5 -9 -13 -28 -18 -42 -6 -14 -20 -45 -32 -68 -13 -28 -21 -63
-21 -96 0 -29 -7 -67 -16 -85 -9 -17 -17 -56 -19 -86 -2 -30 -5 -58 -7 -62 -3
-4 -5 -23 -7 -42 -1 -18 -6 -42 -12 -53 -6 -12 -8 -35 -4 -57 14 -68 19 -168
16 -280 -1 -31 3 -47 14 -54 8 -4 13 -12 10 -18 -4 -5 -1 -9 4 -9 6 0 11 -6
11 -14 0 -8 7 -17 16 -20 8 -3 12 -11 9 -16 -4 -6 -1 -9 5 -8 7 2 14 -8 16
-22 8 -52 15 -66 59 -115 25 -27 45 -53 45 -57 0 -5 9 -8 20 -8 11 0 20 -6 20
-14 0 -8 34 -31 75 -52 41 -21 75 -41 75 -44 0 -4 19 -11 43 -15 52 -10 48 -9
72 -21 20 -10 145 -10 175 -1 8 3 33 8 55 11 21 3 51 14 65 24 14 11 41 23 60
27 19 4 49 18 66 31 17 13 38 24 47 24 10 0 17 5 17 11 0 6 7 9 15 5 10 -3 15
1 15 11 0 9 3 13 7 10 3 -4 28 14 55 39 27 25 56 44 66 42 9 -1 28 8 42 20 74
67 94 81 120 87 15 3 36 15 46 26 9 10 24 19 32 19 13 0 76 41 92 60 23 27 91
69 103 64 11 -4 14 -1 11 13 -4 14 11 35 56 76 34 31 65 57 71 57 5 0 9 6 9
13 0 13 34 47 48 47 4 0 27 18 50 40 42 38 55 45 77 40 5 -1 7 2 3 6 -4 4 4
17 17 30 14 13 25 28 25 34 0 7 16 27 35 46 19 18 35 37 35 41 0 5 27 30 60
57 33 28 60 56 60 63 0 7 5 13 10 13 6 0 10 7 10 14 0 8 29 44 64 79 44 44 68
78 77 105 7 23 23 49 36 57 13 9 21 21 17 27 -4 7 -3 8 5 4 16 -10 52 31 44
50 -3 8 1 14 11 14 9 0 16 5 16 12 0 6 15 28 34 47 18 20 51 54 72 77 22 22
38 47 36 55 -1 9 9 21 23 29 14 7 24 18 22 24 -2 6 9 21 25 34 15 13 28 32 28
42 0 10 4 21 9 25 5 3 12 19 16 35 4 17 20 40 36 52 16 12 29 26 29 32 0 5 9
20 21 32 11 12 21 31 22 43 1 12 7 19 13 17 16 -6 61 43 75 82 7 20 16 31 24
28 13 -5 43 50 32 60 -3 3 4 15 15 26 13 13 18 29 15 44 -2 13 0 21 4 18 4 -2
27 20 50 51 23 30 45 55 50 55 5 0 9 9 9 21 0 12 23 43 55 74 30 30 55 60 55
67 0 17 71 162 82 166 4 2 8 10 8 18 0 8 4 14 9 14 5 0 13 9 16 20 3 11 12 26
18 32 20 21 67 97 67 108 0 5 5 10 11 10 5 0 9 8 7 18 -2 16 15 46 54 91 6 8
12 29 13 47 0 18 8 41 16 51 9 10 22 33 30 51 8 17 19 32 25 32 19 0 44 36 44
63 0 14 5 29 10 32 6 3 10 14 10 23 1 9 9 31 18 48 56 104 133 266 138 293 4
17 10 31 15 31 5 0 9 8 9 19 0 10 7 24 15 31 8 7 15 27 15 44 0 18 9 49 20 71
11 22 20 52 20 67 0 15 5 30 10 33 6 4 8 10 5 14 -2 5 3 24 12 42 10 19 18 39
18 44 0 6 8 26 17 45 9 19 21 55 28 80 7 25 17 64 23 88 6 23 15 42 19 42 5 0
8 11 8 25 0 14 6 41 14 59 14 33 31 114 28 128 -1 5 8 20 21 34 12 14 22 29
22 32 0 4 3 12 7 17 3 6 12 39 18 75 13 64 24 90 41 90 5 0 9 -6 9 -14 0 -8 9
-18 21 -21 16 -5 20 -13 17 -35 -3 -20 -1 -27 9 -23 7 3 13 -2 13 -11 0 -9 5
-16 11 -16 6 0 9 -6 6 -14 -3 -8 1 -20 8 -26 8 -7 18 -28 21 -48 4 -20 15 -45
25 -56 11 -11 19 -25 19 -30 0 -6 9 -22 20 -36 22 -28 26 -45 8 -34 -6 4 -3
-5 8 -19 10 -15 25 -27 32 -27 9 0 11 -7 7 -20 -4 -11 -2 -20 4 -20 6 0 11 -7
11 -15 0 -8 9 -24 21 -36 11 -11 29 -38 38 -60 10 -21 21 -36 24 -32 4 3 7 -1
7 -11 0 -9 5 -14 10 -11 6 3 10 -3 10 -14 0 -12 7 -21 15 -21 8 0 15 -7 15
-16 0 -8 6 -21 13 -28 13 -14 112 -125 145 -164 11 -12 23 -22 28 -22 13 -1
64 -47 64 -59 0 -5 6 -16 14 -24 8 -7 16 -27 17 -43 2 -16 7 -35 12 -41 6 -9
5 -13 -3 -13 -7 0 -10 -8 -7 -20 3 -11 2 -20 -2 -20 -10 0 -34 -87 -35 -129
-1 -20 -5 -41 -9 -48 -4 -6 -3 -15 3 -18 8 -5 7 -12 -2 -22 -15 -19 -19 -72
-7 -95 5 -10 5 -19 0 -23 -5 -3 -13 -30 -16 -60 -4 -30 -11 -55 -16 -55 -4 0
-8 -21 -7 -47 1 -60 -2 -72 -25 -97 -17 -20 -22 -92 -6 -102 8 -4 3 -198 -6
-281 -4 -30 -2 -53 3 -53 11 0 15 -77 3 -84 -9 -6 -4 -88 6 -116 3 -8 7 -40
10 -70 2 -30 7 -68 12 -85 5 -16 8 -54 7 -82 0 -29 3 -54 8 -56 5 -2 9 -22 9
-45 0 -23 4 -42 9 -42 6 0 8 -26 6 -60 -1 -33 0 -60 5 -60 4 0 7 -11 7 -24 0
-13 9 -45 20 -71 11 -26 20 -60 20 -75 0 -16 5 -32 10 -35 6 -3 10 -16 10 -28
0 -13 6 -31 13 -42 7 -11 22 -48 32 -82 10 -35 22 -63 26 -63 5 0 6 -7 3 -15
-4 -8 -1 -15 5 -15 6 0 11 -9 11 -19 0 -11 12 -33 26 -50 15 -18 23 -38 20
-46 -3 -9 7 -27 26 -45 17 -17 28 -33 25 -37 -4 -3 2 -13 12 -22 10 -9 22 -27
26 -41 9 -27 33 -55 49 -55 5 0 13 -10 16 -22 6 -27 39 -68 134 -166 42 -44
76 -83 76 -88 0 -5 7 -9 16 -9 18 0 44 -23 44 -40 0 -6 8 -14 17 -17 9 -4 24
-14 33 -22 34 -32 58 -49 63 -44 3 2 13 -9 23 -26 12 -20 26 -31 41 -31 17 0
23 -6 23 -21 0 -13 5 -19 13 -16 7 3 21 -1 32 -9 10 -8 27 -14 38 -14 11 0 28
-11 39 -25 11 -14 28 -25 38 -25 11 0 24 -9 30 -21 7 -11 17 -18 25 -16 18 8
96 -13 125 -33 14 -10 36 -21 50 -25 14 -4 28 -12 31 -17 4 -6 20 -11 36 -12
16 -2 35 -6 41 -9 5 -4 22 -3 36 2 20 8 24 7 19 -4 -4 -11 3 -15 23 -15 16 0
37 -7 47 -14 12 -9 39 -13 80 -11 40 3 69 -1 83 -10 11 -7 33 -11 48 -8 17 4
31 1 36 -7 6 -9 16 -10 36 -4 16 6 53 7 82 4 39 -4 51 -2 48 6 -5 13 40 3 78
-18 13 -7 21 -6 26 2 6 10 9 9 12 0 5 -15 68 -4 68 12 0 6 6 6 15 -2 8 -7 22
-10 30 -6 8 3 15 1 15 -5 0 -6 5 -7 10 -4 29 18 165 11 154 -7 -4 -6 3 -5 15
1 11 6 32 9 46 7 14 -3 25 0 25 5 0 5 11 9 23 9 13 0 27 3 30 6 4 4 32 9 64
11 128 9 149 11 172 16 14 4 28 12 32 19 4 7 11 9 15 6 4 -4 16 -2 28 4 11 6
37 10 58 10 21 -1 74 7 118 18 45 10 87 16 95 14 7 -3 35 4 62 16 26 12 61 22
78 22 31 1 50 16 78 61 14 21 25 27 52 27 19 0 35 4 35 9 0 4 11 19 24 33 18
17 34 23 63 22 21 0 47 5 59 13 11 7 24 10 28 6 4 -4 11 -1 16 7 8 12 13 13
30 3 26 -17 27 -17 33 8 4 16 9 19 23 11 19 -11 42 -2 81 32 13 11 26 17 29
13 3 -3 18 8 31 24 14 17 31 28 38 25 13 -5 30 24 38 64 3 14 8 34 12 45 7 24
-56 102 -74 91 -6 -4 -11 -2 -11 4 0 7 -6 10 -14 7 -8 -3 -17 -1 -20 6 -5 9
-7 9 -12 0 -7 -15 -40 -17 -49 -3 -3 6 -11 10 -16 10 -6 0 -7 -4 -4 -10 3 -6
-1 -7 -10 -4 -9 4 -21 -1 -29 -11 -10 -14 -26 -18 -62 -18 -27 1 -71 -5 -97
-13 -26 -7 -53 -11 -60 -9 -29 10 -207 11 -210 2 -2 -6 -23 -12 -48 -13 -24
-2 -66 -8 -94 -14 -27 -6 -77 -13 -110 -15 -32 -3 -66 -7 -75 -11 -24 -10
-140 -12 -134 -3 3 5 -27 9 -65 9 -39 0 -71 4 -71 9 0 5 -26 6 -57 3 -32 -4
-74 -6 -93 -5 -19 1 -102 3 -185 6 -153 4 -170 6 -193 21 -7 4 -16 5 -19 2 -3
-3 -15 0 -27 6 -11 7 -25 11 -30 10 -4 -2 -14 2 -20 8 -7 5 -30 12 -52 14 -21
2 -46 6 -54 9 -8 3 -55 18 -105 33 -49 15 -92 30 -95 33 -3 4 -18 8 -35 9 -16
1 -34 7 -39 12 -6 6 -22 10 -37 10 -15 0 -29 4 -31 10 -1 5 -17 11 -35 13 -17
2 -43 11 -57 20 -14 9 -33 17 -42 17 -9 0 -18 9 -21 20 -4 16 -9 18 -24 9 -10
-5 -19 -6 -19 -1 0 5 -12 15 -27 23 -16 8 -34 20 -41 27 -7 6 -19 12 -27 12
-7 0 -20 11 -29 25 -9 14 -22 25 -29 25 -7 0 -24 11 -39 25 -15 14 -29 25 -31
25 -8 0 -107 103 -107 112 0 5 -7 11 -15 14 -8 4 -15 15 -15 25 0 10 -4 19
-10 19 -5 0 -10 7 -10 16 0 10 -6 14 -15 10 -9 -3 -15 0 -15 10 0 8 -4 13 -9
10 -12 -8 -42 40 -35 57 3 8 -2 20 -11 27 -8 7 -15 17 -15 23 0 5 -8 16 -17
24 -10 8 -12 11 -4 7 11 -5 13 -3 8 10 -4 10 -7 20 -7 22 0 3 -4 2 -10 -1 -6
-4 -7 5 -4 24 8 40 -3 81 -21 81 -8 0 -15 5 -15 11 0 5 4 8 8 5 5 -3 9 1 9 9
0 8 -3 12 -7 10 -4 -3 -15 4 -25 15 -11 12 -13 20 -6 20 7 0 2 13 -10 30 -20
26 -23 44 -25 139 -2 104 -16 195 -36 234 -6 11 -5 17 3 17 8 0 9 26 4 92 -9
122 -7 329 4 380 5 22 7 47 4 54 -3 8 -1 14 4 14 5 0 10 17 11 37 2 20 7 42
11 48 9 11 27 148 23 178 -1 9 3 17 8 17 9 0 32 69 29 87 -1 4 0 10 1 13 1 3
3 27 6 55 2 33 9 54 21 63 10 7 18 18 18 25 1 23 17 59 34 76 14 14 34 18 97
17 43 -1 84 -5 91 -9 6 -4 14 -3 17 2 3 4 25 5 48 1 24 -4 78 -7 120 -6 43 1
74 -2 71 -8 -5 -7 23 -5 87 7 9 2 21 6 28 11 6 4 16 5 21 1 6 -3 58 -8 117
-11 60 -3 111 -7 115 -9 3 -3 29 4 56 14 36 13 55 15 68 8 12 -6 40 -6 86 3
38 6 86 9 106 6 21 -4 74 0 118 7 44 8 83 13 87 10 4 -2 23 -5 43 -7 28 -2 35
1 30 12 -4 10 0 12 10 8 16 -6 21 -4 83 27 19 9 44 17 57 17 13 0 27 5 30 10
3 6 11 10 16 10 6 0 7 -4 4 -10 -4 -6 14 -10 47 -9 78 1 159 14 167 27 4 7 33
11 76 10 46 -1 84 4 112 15 24 9 59 19 80 21 21 3 42 11 48 18 5 7 26 14 45
14 71 3 154 25 204 55 17 10 51 23 76 29 106 26 124 31 134 37 5 4 34 6 63 6
29 0 50 3 48 7 -3 5 7 18 23 29 37 30 66 46 152 85 14 6 31 19 39 29 8 12 21
17 33 14 11 -3 21 0 25 9 3 7 20 16 39 20 19 3 34 12 34 20 0 8 6 14 14 14 8
0 16 3 18 8 2 4 21 16 42 27 22 11 44 25 50 30 6 6 45 37 86 69 41 33 80 64
85 70 20 22 123 76 144 76 6 0 11 9 11 19 0 10 7 22 16 25 9 3 14 12 11 19 -5
13 18 64 37 82 6 6 25 19 41 29 17 10 37 31 44 48 8 17 16 25 20 20 4 -7 15 0
26 15 11 14 37 43 58 64 20 22 37 45 37 51 0 6 16 26 35 45 19 19 35 41 35 49
0 8 7 14 15 12 14 -3 95 78 95 96 0 5 16 24 35 43 19 19 38 45 41 58 3 14 10
25 15 25 5 0 9 7 9 15 0 17 54 75 70 75 5 0 12 10 16 22 3 12 15 31 25 42 11
11 19 25 19 32 0 6 7 17 16 25 10 8 13 21 9 36 -3 13 -2 23 3 23 4 0 8 28 8
63 0 67 3 83 26 137 11 26 12 44 6 69 -6 19 -7 48 -4 66 8 40 -7 70 -63 122
-27 26 -40 46 -35 54 4 7 3 10 -4 5 -11 -7 -69 41 -65 54 1 4 -11 20 -27 35
-17 16 -30 34 -30 41 0 7 -11 21 -25 32 -14 11 -25 25 -25 31 0 6 -7 8 -15 5
-8 -4 -17 1 -21 10 -3 9 -10 14 -14 11 -4 -3 -11 2 -14 11 -3 8 -10 13 -15 10
-4 -3 -27 3 -49 14 -23 11 -48 20 -57 20 -8 0 -15 4 -15 8 0 5 -6 9 -12 9 -30
2 -134 26 -149 34 -10 5 -43 9 -75 11 -33 1 -66 7 -74 14 -12 9 -26 9 -65 -3
-28 -7 -114 -16 -193 -18 -92 -3 -155 -10 -177 -19 -24 -11 -44 -12 -66 -6
-32 10 -56 8 -177 -9 -46 -7 -80 -18 -93 -30 -16 -15 -32 -18 -68 -15 -45 4
-167 -16 -192 -32 -7 -4 -22 -9 -33 -10 -133 -13 -157 -18 -172 -35 -10 -11
-23 -19 -30 -19 -7 0 -14 -6 -17 -12 -3 -10 -9 -10 -27 0 -20 13 -22 12 -16
-3 4 -13 2 -16 -9 -11 -8 3 -15 1 -15 -5 0 -6 -7 -9 -15 -5 -8 3 -15 1 -15 -4
0 -5 -8 -9 -17 -8 -39 3 -63 -3 -61 -14 2 -7 -3 -12 -11 -10 -7 1 -24 -4 -38
-13 -14 -9 -31 -14 -38 -11 -8 3 -17 1 -20 -4 -4 -6 -15 -10 -26 -10 -10 0
-19 -5 -19 -11 0 -11 -69 -44 -84 -40 -5 1 -16 -1 -25 -5 -9 -4 -25 -8 -36
-10 -11 -2 -27 -5 -35 -7 -8 -1 -39 -15 -69 -30 -36 -18 -73 -29 -106 -30 -29
-1 -59 -8 -68 -15 -9 -8 -21 -11 -27 -7 -7 4 -28 -8 -48 -28 -21 -19 -49 -37
-64 -41 -73 -16 -84 -20 -90 -30 -5 -8 -8 -7 -8 2 0 20 -14 14 -53 -23 -20
-19 -43 -35 -50 -35 -8 0 -22 -8 -31 -19 -18 -19 -101 -49 -148 -53 -16 -1
-28 -6 -28 -10 0 -5 -11 -13 -25 -18 -14 -5 -25 -14 -25 -20 0 -5 -12 -13 -27
-16 -16 -4 -34 -11 -41 -17 -7 -5 -15 -7 -18 -4 -7 7 -90 -39 -118 -64 -11
-11 -25 -19 -31 -19 -6 0 -24 -13 -40 -30 -15 -16 -31 -27 -35 -25 -4 3 -15
-4 -25 -15 -10 -11 -21 -18 -25 -15 -7 4 -51 -40 -49 -51 2 -11 -55 -64 -68
-64 -7 0 -13 -6 -13 -14 0 -7 -9 -16 -21 -19 -13 -4 -18 -10 -13 -18 4 -7 3
-10 -3 -6 -5 3 -25 -9 -44 -28 -19 -19 -41 -35 -50 -35 -9 0 -19 -7 -23 -15
-3 -8 -12 -15 -21 -15 -8 0 -15 -4 -15 -10 0 -5 -7 -10 -16 -10 -9 0 -12 -5
-8 -12 5 -8 2 -9 -9 -5 -11 4 -17 1 -17 -8 0 -8 -4 -15 -10 -15 -5 0 -10 -6
-11 -12 -1 -7 -36 -44 -79 -83 -43 -38 -78 -76 -79 -83 -1 -7 -9 -16 -18 -19
-9 -4 -39 -30 -67 -60 -70 -73 -73 -77 -68 -91 2 -6 -3 -12 -12 -12 -9 0 -16
-7 -16 -15 0 -8 -7 -15 -16 -15 -8 0 -13 -4 -10 -8 3 -5 -15 -24 -39 -42 -24
-18 -46 -38 -49 -45 -7 -18 -68 -12 -100 10 -35 24 -86 76 -86 88 0 4 -5 13
-10 20 -49 58 -60 74 -56 84 3 7 -6 21 -19 32 -14 10 -25 23 -25 28 0 5 -13
23 -30 39 -16 16 -30 39 -30 52 0 12 -4 22 -10 22 -5 0 -10 9 -10 20 0 21 -20
72 -33 81 -4 3 -11 19 -16 35 -4 16 -12 29 -18 29 -6 0 -15 3 -19 8 -4 4 -2 7
4 7 8 0 9 6 3 17 -12 25 -32 84 -36 108 -2 11 -11 44 -19 74 -8 30 -12 59 -8
65 8 13 3 59 -8 66 -27 18 -55 140 -39 170 4 8 10 26 13 40 4 14 29 50 56 80
28 30 50 59 50 63 0 4 9 18 21 30 11 12 30 44 41 70 11 26 35 57 51 69 17 12
45 37 63 56 22 24 39 33 55 30 18 -2 23 1 21 15 -2 9 1 16 5 15 16 -4 59 15
83 37 14 13 35 26 48 30 12 3 22 13 22 22 0 9 6 13 14 10 7 -3 20 3 29 14 9
10 29 19 45 19 15 0 34 6 41 13 11 10 13 10 7 0 -13 -23 14 -14 36 12 12 14
26 25 31 25 5 0 20 9 34 20 15 11 34 18 44 15 19 -6 73 37 61 50 -4 4 5 5 21
1 15 -3 27 -2 27 3 0 16 69 51 87 44 13 -5 15 -2 10 11 -4 10 -3 15 3 11 10
-6 20 0 70 46 19 18 45 29 79 34 43 6 52 11 63 36 7 16 17 29 23 30 77 5 112
17 118 39 3 11 20 27 39 34 18 8 42 23 53 33 11 10 33 18 48 18 16 -1 31 4 35
10 11 16 65 52 92 59 34 10 92 38 108 54 7 6 21 12 31 12 10 0 28 9 41 20 12
11 38 22 56 26 18 3 38 12 45 20 6 8 19 14 29 14 10 0 23 6 30 14 6 8 18 12
25 9 8 -2 25 6 37 20 13 13 28 22 35 20 6 -2 21 5 32 16 12 12 21 18 21 14 0
-5 6 -1 13 7 7 8 28 24 47 34 19 11 38 25 42 31 4 6 26 18 50 25 48 15 93 54
82 72 -5 7 2 9 21 5 17 -3 38 1 52 10 13 9 32 13 44 10 15 -4 31 6 62 36 22
23 37 36 33 30 -12 -22 6 -14 30 12 13 14 29 25 36 25 7 0 36 12 63 25 28 14
55 25 61 25 6 0 21 11 34 25 13 14 32 25 42 25 10 0 18 5 18 10 0 6 6 10 13
10 7 0 29 13 49 30 19 16 50 31 67 32 17 1 31 6 31 10 0 4 7 8 16 8 15 0 95
57 102 72 2 5 10 8 18 8 8 0 14 5 14 10 0 6 15 10 34 10 24 0 39 7 49 20 8 12
21 18 29 15 8 -3 23 3 33 15 10 11 26 20 37 20 10 0 18 5 18 10 0 6 8 13 18
17 9 3 27 15 40 26 22 20 84 47 110 47 7 0 23 11 35 24 13 13 46 32 75 41 29
10 52 21 52 25 0 5 14 15 31 24 29 14 30 14 24 -2 -4 -12 0 -11 18 6 13 12 33
22 44 22 12 0 23 7 27 15 3 8 14 15 25 15 30 0 51 11 51 26 0 18 46 47 77 49
15 0 39 15 59 38 32 35 38 37 92 37 52 0 62 4 90 31 19 19 32 26 32 18 1 -10
4 -9 14 4 7 9 20 17 28 17 8 0 18 3 22 8 4 4 11 7 14 8 19 2 59 24 74 41 23
25 46 43 55 43 4 0 18 11 30 23 12 13 41 29 65 37 24 7 48 16 53 19 6 3 12 6
15 7 39 12 50 19 50 30 0 8 14 17 30 21 17 3 30 12 30 20 0 8 5 11 10 8 6 -3
22 3 36 14 15 12 36 21 48 21 11 0 32 9 46 20 14 11 33 20 43 20 9 0 17 4 17
10 0 12 65 40 91 40 11 0 19 4 19 8 0 5 29 23 65 42 36 19 65 37 65 42 0 4 18
8 40 8 38 0 80 26 80 49 0 5 9 7 19 4 12 -3 33 5 54 21 19 14 42 26 52 26 10
0 15 5 12 14 -4 9 2 14 18 14 13 -1 39 11 57 26 26 19 47 26 81 26 27 0 52 6
61 15 8 8 19 15 24 15 5 0 24 10 43 23 19 12 47 24 63 25 16 1 35 7 42 13 7 6
18 8 23 5 5 -4 14 2 20 11 6 10 11 14 11 10 0 -5 12 1 26 12 15 12 33 21 40
21 7 0 19 6 27 14 8 8 27 16 43 19 16 3 43 11 59 18 17 6 36 13 43 13 7 1 16
6 20 12 8 12 40 27 65 29 9 1 26 10 36 20 12 10 27 14 39 11 18 -6 81 19 93
37 4 5 21 10 40 12 18 1 35 8 37 14 6 17 49 32 106 36 26 2 53 8 59 14 6 6 21
11 33 11 12 0 24 5 26 12 3 7 43 18 93 25 67 10 91 17 102 32 10 15 24 20 54
18 26 -1 43 4 49 13 7 10 10 11 10 3 0 -17 15 -16 34 2 8 8 24 15 35 15 11 0
23 5 26 10 4 6 11 8 16 4 14 -8 69 16 69 30 0 6 9 17 20 24 12 7 20 8 20 2 0
-20 44 -11 117 23 12 5 34 6 49 3 15 -4 30 -3 33 3 9 14 118 41 136 34 10 -3
15 1 15 12 0 9 5 13 11 10 5 -4 18 0 28 9 10 9 22 16 27 14 5 -1 19 3 32 10
12 7 27 10 33 7 5 -4 15 -3 22 2 7 5 26 10 42 12 17 1 34 7 39 12 6 5 22 9 36
9 14 0 31 5 37 11 9 9 23 9 52 1 31 -7 41 -7 41 2 0 15 47 39 60 31 14 -9 153
22 164 37 7 8 30 13 64 13 41 0 53 4 58 18 3 9 15 17 28 17 35 0 116 30 116
43 0 9 2 9 8 0 4 -6 26 -13 50 -15 23 -3 45 -7 48 -11 6 -6 44 12 55 26 8 11
40 16 161 26 54 5 105 14 113 21 12 10 22 10 38 3 28 -13 57 0 57 26 0 20 19
31 50 31 10 0 20 6 23 14 4 9 31 16 79 21 40 4 83 14 95 22 13 9 23 12 23 9 0
-4 16 9 36 29 23 23 37 49 41 73 3 20 10 42 15 49 5 6 11 29 13 50 2 20 8 39
14 41 6 2 11 19 11 37 0 33 -31 65 -64 65 -7 0 -27 12 -43 28 -17 15 -43 28
-59 29 -16 1 -98 7 -183 14 -142 12 -155 11 -187 -6 -18 -9 -42 -15 -52 -13
-11 3 -60 0 -108 -7 -49 -8 -92 -12 -95 -9 -4 2 -20 -1 -36 -7 -15 -7 -43 -13
-61 -14 -18 -1 -36 -5 -39 -9 -3 -3 -12 -1 -19 5 -8 6 -23 7 -36 3 -13 -4 -32
-8 -43 -10 -11 -1 -40 -9 -64 -18 -24 -10 -56 -14 -70 -11 -18 4 -33 0 -46
-13 -16 -15 -28 -17 -70 -11 -27 4 -57 10 -66 14 -11 4 -22 -1 -31 -14 -11
-16 -22 -19 -55 -15 -23 3 -44 0 -48 -6 -3 -5 -17 -7 -29 -4 -13 3 -41 -2 -62
-12 -21 -10 -49 -18 -62 -19 -12 0 -29 -10 -37 -22 -12 -17 -23 -20 -69 -18
-31 2 -59 6 -65 9 -5 3 -11 -4 -14 -15 -4 -15 -11 -20 -21 -16 -10 4 -16 1
-16 -8 0 -18 -17 -20 -23 -2 -3 9 -9 9 -25 0 -16 -9 -23 -10 -28 -1 -5 7 -11
5 -20 -7 -9 -12 -20 -16 -38 -11 -21 5 -24 3 -19 -11 5 -12 2 -15 -10 -10 -9
3 -36 -1 -59 -9 -24 -8 -53 -12 -66 -9 -15 4 -24 0 -28 -9 -3 -8 -12 -12 -19
-9 -8 2 -20 1 -27 -3 -14 -9 -36 -12 -91 -15 -21 -1 -43 -7 -50 -14 -7 -6 -29
-18 -50 -24 -20 -7 -37 -17 -37 -22 0 -6 -9 -8 -19 -4 -11 3 -37 -2 -58 -11
-21 -9 -53 -16 -72 -15 -19 1 -38 -4 -43 -11 -6 -10 -10 -10 -16 -1 -6 10 -17
7 -42 -12 -19 -14 -41 -23 -48 -20 -7 3 -23 0 -35 -7 -12 -7 -28 -11 -35 -9
-8 1 -22 -5 -32 -14 -10 -9 -23 -14 -28 -11 -4 3 -20 -1 -34 -8 -14 -7 -42
-16 -63 -20 -21 -4 -45 -14 -53 -22 -8 -9 -23 -13 -33 -11 -11 3 -19 1 -19 -4
0 -5 -8 -9 -18 -9 -10 0 -27 -9 -39 -19 -13 -12 -29 -17 -45 -14 -14 3 -39 -2
-56 -11 -17 -9 -41 -16 -53 -16 -12 0 -19 -3 -16 -7 10 -10 -45 -35 -80 -36
-20 -1 -33 -6 -33 -14 0 -7 -7 -13 -15 -13 -9 0 -27 -7 -41 -16 -23 -16 -26
-16 -38 1 -12 16 -13 16 -19 1 -4 -9 -14 -16 -22 -16 -9 0 -14 -4 -11 -8 2 -4
-3 -8 -13 -9 -10 -1 -36 -9 -57 -19 -21 -9 -43 -16 -48 -15 -5 1 -12 -2 -15
-7 -9 -12 -94 -52 -113 -52 -8 0 -27 -9 -42 -21 -14 -11 -49 -28 -76 -38 -27
-10 -47 -21 -43 -24 3 -4 -3 -7 -15 -7 -12 0 -22 -4 -22 -10 0 -5 -9 -10 -20
-10 -11 0 -23 -7 -26 -15 -4 -10 -14 -13 -29 -9 -13 3 -26 1 -29 -5 -4 -6 -15
-11 -24 -11 -10 0 -23 -9 -30 -20 -7 -11 -18 -17 -27 -14 -8 4 -15 1 -15 -5 0
-6 -11 -11 -25 -11 -14 0 -25 -4 -25 -10 0 -5 -7 -10 -15 -10 -8 0 -29 -9 -46
-19 -17 -11 -38 -17 -45 -14 -8 3 -14 -1 -14 -10 0 -8 -11 -18 -25 -21 -14 -4
-25 -11 -25 -16 0 -6 -6 -10 -14 -10 -8 0 -22 -10 -30 -21 -11 -16 -22 -20
-40 -17 -19 4 -26 1 -26 -10 0 -8 -3 -12 -6 -9 -4 4 -28 -4 -53 -18 -52 -27
-82 -39 -94 -36 -4 1 -18 -5 -30 -14 -12 -8 -29 -15 -39 -15 -10 0 -18 -4 -18
-10 0 -5 -9 -10 -19 -10 -11 0 -27 -7 -35 -16 -9 -8 -20 -12 -26 -9 -5 3 -10
1 -10 -4 0 -6 -7 -11 -15 -11 -8 0 -15 -4 -15 -10 0 -9 -101 -60 -120 -60 -6
0 -10 -6 -10 -12 0 -7 -20 -21 -45 -31 -25 -11 -45 -24 -45 -29 0 -6 -7 -8
-15 -4 -8 3 -23 -3 -32 -13 -10 -11 -35 -22 -55 -26 -21 -4 -38 -13 -38 -20 0
-7 -7 -18 -15 -25 -10 -9 -15 -9 -15 -1 0 6 -4 11 -10 11 -5 0 -10 -9 -10 -21
0 -15 -4 -19 -16 -15 -9 3 -27 -3 -41 -14 -14 -11 -44 -25 -67 -31 -22 -6 -55
-22 -73 -35 -17 -13 -36 -24 -41 -24 -5 0 -15 -7 -22 -15 -7 -9 -21 -13 -31
-10 -11 4 -19 2 -19 -4 0 -6 -8 -11 -18 -11 -10 0 -35 -18 -56 -40 -24 -25
-47 -40 -62 -40 -15 0 -24 -6 -24 -16 0 -11 -8 -15 -28 -13 -18 2 -36 -3 -46
-14 -10 -9 -22 -15 -27 -12 -5 4 -9 1 -9 -4 0 -6 -7 -11 -15 -11 -8 0 -24 -8
-35 -17 -11 -10 -39 -23 -63 -28 -24 -6 -42 -17 -42 -25 0 -7 -26 -23 -58 -34
-31 -12 -66 -29 -77 -38 -11 -10 -23 -18 -26 -18 -16 0 -134 -62 -134 -70 0
-5 -7 -7 -15 -4 -8 4 -17 -1 -21 -10 -3 -9 -12 -16 -20 -16 -8 0 -22 -4 -32
-9 -63 -31 -88 -46 -95 -58 -4 -7 -19 -13 -32 -13 -13 0 -28 -7 -33 -15 -4 -9
-20 -18 -35 -20 -46 -9 -72 -22 -108 -55 -24 -22 -47 -33 -73 -36 -22 -2 -44
-8 -50 -14 -5 -5 -16 -10 -24 -10 -7 0 -25 -14 -39 -30 -13 -16 -31 -30 -39
-30 -8 0 -14 -4 -14 -10 0 -5 -8 -10 -19 -10 -10 0 -24 -7 -32 -16 -8 -9 -21
-13 -35 -10 -12 3 -29 0 -36 -6 -13 -13 -50 -32 -80 -42 -11 -3 -15 -11 -12
-21 6 -15 -11 -20 -62 -16 -13 1 -28 -8 -38 -23 -9 -15 -25 -26 -36 -26 -11 0
-29 -9 -40 -20 -11 -11 -32 -20 -46 -20 -18 0 -24 -4 -21 -13 6 -16 -29 -41
-38 -27 -4 6 -25 0 -51 -15 -25 -14 -56 -25 -70 -25 -13 0 -27 -7 -30 -15 -4
-8 -14 -15 -25 -15 -10 0 -22 -6 -26 -12 -9 -14 -89 -58 -105 -58 -5 0 -24
-11 -42 -25 -18 -14 -45 -25 -59 -25 -15 0 -27 -4 -27 -10 0 -5 -7 -7 -16 -3
-10 4 -17 -2 -21 -17 -4 -15 -11 -20 -25 -17 -10 3 -24 -1 -31 -8 -17 -16 -92
-55 -108 -55 -7 0 -20 -6 -28 -14 -14 -12 -91 -32 -91 -23 0 3 36 75 65 128 5
11 15 19 22 19 7 0 16 12 19 27 7 27 58 108 75 118 5 4 7 10 4 15 -3 4 4 10
15 13 20 5 24 11 34 60 4 15 11 25 15 22 5 -3 15 11 21 31 9 25 16 34 27 29
13 -4 13 -3 4 9 -9 11 -6 17 14 30 14 10 31 29 38 44 6 15 19 32 28 39 9 7 22
27 29 45 8 18 24 44 37 57 13 13 23 29 23 36 0 7 7 15 15 19 8 3 15 12 15 19
0 8 9 22 20 32 11 10 17 22 14 26 -3 5 0 9 5 9 6 0 11 8 11 17 0 9 3 14 6 10
9 -9 34 19 34 37 0 8 9 21 20 29 11 8 18 16 15 19 -3 2 12 23 33 46 22 23 37
42 34 42 -2 0 12 20 32 44 20 24 36 51 36 60 0 9 7 16 15 16 9 0 20 11 25 25
5 14 14 25 20 25 5 0 10 7 10 15 0 8 5 15 10 15 6 0 10 9 10 20 0 11 5 20 10
20 6 0 10 5 10 11 0 6 10 19 23 29 12 10 33 39 45 64 13 25 30 46 38 46 8 0
14 9 14 20 0 13 9 22 26 26 15 4 23 12 20 19 -3 8 6 25 19 39 13 14 26 34 29
44 4 11 20 32 36 48 16 16 30 35 30 42 0 6 4 12 9 12 5 0 11 9 14 20 3 11 12
20 21 20 9 0 16 5 16 10 0 6 11 23 25 37 13 15 27 40 31 56 3 15 12 31 20 34
8 3 14 11 14 17 0 7 13 25 30 41 16 15 27 31 25 35 -4 7 95 133 114 144 6 4 8
13 4 22 -5 14 5 29 50 72 9 9 17 22 17 28 0 6 18 26 39 45 22 18 37 37 35 41
-3 4 2 5 10 2 12 -5 16 1 16 20 0 16 11 38 27 54 15 15 27 30 26 33 -1 3 18
27 43 53 24 26 44 56 44 68 0 18 2 19 16 7 15 -12 16 -11 10 9 -6 18 -2 29 19
48 14 13 28 24 30 24 1 0 20 17 41 38 45 44 79 91 89 123 9 27 42 77 68 100 9
9 17 20 17 25 0 5 25 35 55 67 30 31 55 63 55 70 0 7 11 21 25 31 14 10 25 25
25 32 0 8 4 14 9 14 5 0 12 11 15 25 4 14 11 25 18 25 17 0 53 43 68 81 7 19
28 49 47 68 18 18 33 40 33 47 0 8 5 14 10 14 6 0 10 4 10 9 0 6 14 30 30 54
17 25 30 50 30 56 0 6 5 11 10 11 6 0 15 11 21 24 7 14 17 22 25 19 8 -3 21
12 34 41 12 25 25 45 28 44 15 -3 42 15 36 23 -3 5 5 13 17 17 17 7 19 11 9
17 -10 6 -8 12 9 24 12 10 23 24 25 31 10 51 67 129 89 122 7 -2 64 59 60 64
-1 1 21 26 48 56 27 29 49 59 49 67 0 7 10 24 23 36 50 51 68 75 62 85 -3 5 0
10 8 10 14 0 32 26 29 42 -1 3 19 21 43 40 30 22 49 45 56 70 7 21 15 35 19
33 4 -3 20 8 36 22 16 15 33 26 37 25 5 -1 6 2 3 7 -4 5 -1 14 6 20 43 34 65
59 76 84 6 15 20 27 29 27 11 0 23 13 31 33 29 69 35 77 69 83 35 7 46 24 16
24 -11 1 -4 7 14 15 23 10 31 19 27 29 -4 10 -1 16 8 16 21 0 68 53 68 76 0
11 3 15 8 9 4 -6 12 -10 17 -10 9 0 78 65 69 65 -2 0 4 9 13 20 10 11 23 20
29 20 6 0 14 9 17 20 3 12 14 20 26 20 11 0 28 12 38 26 10 14 31 41 47 60 15
19 25 34 22 34 -3 0 3 9 14 20 11 11 25 20 30 20 6 0 10 5 10 10 0 12 106 120
118 120 4 1 18 14 32 30 13 17 29 30 36 30 6 0 17 6 24 14 6 8 18 12 25 9 9
-3 17 5 21 21 4 16 15 28 30 32 13 3 22 10 19 14 -6 9 79 100 93 100 5 0 14
11 20 25 6 14 18 25 27 25 8 0 21 11 30 23 8 13 27 30 43 38 15 7 47 30 72 50
25 21 64 45 87 55 23 10 44 27 47 37 2 10 14 21 26 24 13 3 19 11 16 19 -4 10
3 14 20 14 13 0 27 7 31 16 3 8 12 13 19 10 7 -3 16 4 19 15 4 10 11 19 17 19
5 0 8 6 5 14 -7 17 20 30 27 13 2 -7 5 -2 5 9 1 13 16 31 40 47 22 15 67 52
101 84 34 32 70 61 79 65 9 3 29 18 45 32 16 14 33 26 38 26 5 0 27 18 51 39
23 21 45 39 50 40 4 1 10 2 15 2 12 3 36 6 55 8 10 0 15 6 12 11 -3 6 1 13 9
16 9 3 16 12 16 19 0 19 58 65 81 65 10 0 19 4 19 10 0 5 7 7 15 4 10 -4 15 0
15 10 0 19 49 77 64 75 25 -3 36 2 36 15 0 8 14 17 30 21 18 4 27 11 24 17 -5
7 0 9 14 6 12 -4 22 -3 22 0 0 4 29 20 64 36 53 25 62 33 58 50 -3 12 -1 18 3
14 9 -9 85 29 85 42 0 6 11 10 25 10 14 0 25 5 25 10 0 6 5 10 11 10 6 0 22
14 36 30 17 21 31 29 43 25 10 -3 24 0 32 7 7 7 38 26 68 42 30 17 86 55 123
85 41 34 76 55 87 53 14 -2 21 4 26 23 5 20 11 25 26 21 14 -3 22 1 25 13 2
10 19 23 37 29 18 7 45 25 62 40 26 26 76 48 97 44 4 -1 7 5 7 13 0 9 7 18 15
21 8 4 15 12 15 20 0 7 6 17 14 21 28 16 75 90 69 111 -2 11 0 29 6 41 7 12 8
21 2 21 -5 0 -12 24 -16 53 -4 28 -10 54 -14 57 -11 9 -29 90 -21 95 10 6 -11
65 -22 65 -4 0 -8 13 -8 30 0 23 -4 28 -16 23 -13 -5 -15 -2 -10 13 5 16 -1
23 -30 33 -26 9 -34 17 -29 29 3 9 3 13 -1 9 -4 -4 -13 -2 -20 4 -16 13 -114
22 -114 11z m-13620 -7706 c0 -6 5 -4 10 4 8 12 10 11 10 -7 0 -13 -5 -22 -12
-20 -7 1 -14 -7 -16 -18 -2 -11 -17 -27 -35 -35 -18 -8 -32 -19 -32 -25 0 -10
-74 -80 -84 -80 -3 1 -17 -12 -31 -28 -50 -58 -185 -186 -196 -187 -6 0 -37
-25 -69 -55 -31 -30 -61 -55 -65 -55 -5 0 -17 -13 -27 -30 -9 -16 -20 -30 -24
-30 -4 0 -29 -20 -57 -45 -27 -25 -55 -45 -61 -45 -6 0 -10 -3 -9 -7 2 -11
-20 -63 -27 -63 -3 0 -4 5 -2 11 1 6 -3 13 -9 15 -11 5 -104 -88 -104 -105 0
-5 -10 -11 -22 -13 -15 -2 -24 -11 -26 -25 -2 -13 -7 -23 -11 -23 -5 0 -30
-22 -57 -50 -27 -27 -57 -50 -67 -50 -10 0 -44 -26 -75 -57 -54 -54 -76 -72
-112 -89 -18 -9 -80 -75 -80 -86 0 -4 -6 -5 -12 -3 -7 3 -33 -13 -58 -35 -25
-22 -48 -40 -52 -40 -5 0 -8 -7 -8 -16 0 -11 -5 -14 -16 -10 -12 4 -14 1 -9
-14 5 -15 0 -21 -19 -26 -24 -6 -31 -15 -27 -36 0 -5 -3 -8 -9 -8 -5 0 -22
-10 -37 -22 -55 -46 -128 -113 -131 -121 -6 -12 -126 -130 -150 -146 -12 -8
-22 -24 -24 -35 -2 -11 -16 -27 -33 -36 -16 -9 -35 -26 -41 -38 -20 -40 -46
-63 -66 -56 -14 4 -21 0 -25 -15 -3 -12 -10 -21 -17 -20 -6 1 -16 1 -22 0 -14
-1 -60 -41 -48 -41 5 -1 -7 -8 -26 -16 -35 -15 -120 -96 -120 -114 0 -6 -7
-10 -16 -10 -21 0 -124 -103 -124 -125 0 -10 -5 -15 -14 -12 -12 5 -48 -24
-82 -65 -7 -7 -26 -24 -44 -38 -18 -14 -44 -36 -58 -50 -14 -14 -35 -23 -45
-22 -11 2 -17 -1 -13 -6 9 -15 -53 -92 -69 -85 -8 3 -15 0 -15 -7 0 -17 -30
-45 -49 -45 -9 0 -23 -15 -32 -33 -16 -31 -58 -72 -76 -72 -13 0 -49 -43 -57
-66 -3 -11 -18 -27 -31 -34 -14 -7 -25 -17 -25 -22 0 -4 -7 -8 -15 -8 -8 0
-15 -6 -15 -13 0 -8 -11 -24 -25 -37 -14 -13 -25 -29 -25 -35 0 -12 -73 -75
-87 -75 -5 0 -26 -20 -48 -45 -22 -25 -46 -45 -52 -45 -7 0 -18 -9 -25 -20 -7
-11 -18 -20 -25 -20 -7 0 -20 -12 -30 -26 -24 -37 -71 -83 -78 -76 -6 6 -145
-136 -145 -147 0 -17 -85 -91 -111 -96 -16 -4 -31 -11 -34 -16 -4 -5 -14 -9
-25 -9 -11 0 -22 -11 -28 -29 -11 -32 -51 -73 -63 -65 -5 3 -6 -2 -3 -11 5
-11 0 -18 -15 -22 -11 -3 -30 -20 -41 -38 -15 -25 -29 -34 -60 -39 -22 -3 -40
-11 -40 -16 0 -6 -13 -24 -30 -40 -16 -16 -30 -36 -30 -44 0 -9 -12 -22 -27
-30 -16 -8 -50 -35 -78 -60 -27 -25 -52 -46 -55 -46 -3 0 -25 -19 -50 -41 -25
-23 -55 -45 -67 -50 -15 -5 -21 -14 -17 -24 3 -8 1 -15 -5 -15 -6 0 -11 -7
-11 -15 0 -8 -6 -15 -13 -15 -7 0 -37 -22 -66 -50 -29 -27 -58 -50 -65 -50 -6
0 -37 -25 -68 -55 -31 -30 -62 -55 -68 -55 -6 0 -13 -7 -17 -15 -3 -9 -25 -29
-48 -45 -24 -17 -51 -38 -61 -47 -10 -10 -21 -18 -25 -18 -12 0 -109 -89 -109
-100 0 -6 -11 -19 -25 -29 -13 -10 -40 -34 -60 -53 -21 -20 -42 -32 -50 -29
-9 3 -15 -1 -15 -9 0 -8 -9 -19 -20 -25 -11 -6 -20 -17 -20 -25 0 -8 -6 -15
-13 -15 -25 0 -76 -31 -101 -60 -14 -17 -29 -30 -35 -30 -12 0 -36 -19 -85
-69 -24 -24 -39 -31 -53 -27 -14 5 -28 -4 -53 -34 -18 -22 -40 -40 -47 -40 -7
0 -13 -6 -13 -14 0 -7 -13 -19 -29 -26 -16 -6 -41 -25 -57 -41 -15 -16 -32
-29 -38 -29 -6 0 -22 -11 -36 -24 -106 -103 -145 -136 -161 -136 -10 0 -19 -4
-19 -10 0 -5 -7 -10 -16 -10 -8 0 -34 -19 -57 -42 -71 -71 -135 -114 -165
-109 -7 1 -11 -2 -10 -7 3 -10 -63 -89 -70 -83 -2 2 -26 -17 -52 -43 -26 -25
-52 -46 -59 -46 -6 0 -11 -4 -11 -10 0 -5 -9 -10 -19 -10 -11 0 -23 -9 -26
-20 -3 -11 -11 -20 -17 -20 -6 0 -26 -13 -45 -30 -18 -16 -38 -30 -42 -30 -5
0 -7 -10 -3 -22 4 -17 2 -20 -11 -15 -9 3 -19 2 -22 -3 -4 -6 -15 -10 -27 -10
-11 0 -22 -8 -25 -19 -2 -10 -16 -24 -30 -30 -14 -7 -23 -14 -20 -17 9 -10
-44 -48 -103 -74 -30 -14 -68 -40 -84 -57 -16 -18 -36 -33 -43 -33 -8 0 -31
-18 -53 -40 -22 -22 -44 -40 -49 -40 -6 0 -15 -9 -21 -20 -6 -11 -17 -20 -24
-20 -20 0 -66 -39 -62 -53 1 -7 1 -9 -1 -4 -9 15 -24 6 -49 -33 -15 -22 -34
-40 -43 -40 -9 0 -27 -10 -41 -23 -14 -13 -33 -26 -43 -30 -10 -4 -16 -10 -14
-14 3 -5 -10 -19 -29 -33 -18 -14 -34 -31 -34 -37 0 -7 -7 -13 -15 -13 -8 0
-15 -6 -15 -13 0 -7 -11 -13 -27 -12 -19 0 -31 -8 -43 -30 -9 -16 -23 -30 -31
-30 -18 0 -38 -18 -32 -29 3 -4 -4 -5 -15 -2 -15 5 -22 2 -27 -14 -3 -11 -13
-20 -21 -20 -8 0 -14 -7 -14 -15 0 -9 -6 -15 -12 -13 -7 2 -31 -14 -52 -34
-22 -21 -43 -35 -48 -32 -4 3 -8 -2 -8 -10 0 -9 -4 -16 -10 -16 -5 0 -10 -7
-10 -15 0 -8 -6 -15 -14 -15 -8 0 -16 -7 -20 -15 -3 -8 -12 -15 -21 -15 -9 0
-15 -6 -14 -12 3 -27 -2 -37 -16 -32 -8 4 -15 2 -15 -2 0 -18 -47 -63 -73 -69
-15 -4 -32 -15 -37 -25 -6 -10 -20 -22 -32 -26 -13 -3 -31 -13 -41 -22 -9 -8
-20 -13 -23 -9 -11 11 -63 -29 -104 -81 -23 -29 -50 -52 -60 -52 -9 0 -23 -7
-30 -15 -7 -8 -19 -15 -26 -15 -8 0 -14 -4 -14 -10 0 -5 -7 -10 -15 -10 -8 0
-22 -11 -31 -25 -9 -13 -24 -27 -35 -30 -10 -4 -19 -11 -19 -17 0 -14 -42 -47
-61 -48 -10 0 -20 -11 -23 -25 -4 -14 -10 -24 -15 -21 -4 3 -23 -6 -41 -19
-19 -14 -39 -25 -46 -25 -6 0 -28 -16 -49 -35 -21 -19 -41 -34 -44 -33 -21 2
-36 -6 -74 -40 -45 -40 -69 -57 -103 -71 -12 -5 -30 -21 -41 -35 -64 -81 -83
-97 -102 -87 -14 8 -20 7 -25 -4 -3 -8 -12 -15 -21 -15 -8 0 -15 -4 -15 -10 0
-5 -15 -17 -32 -26 -18 -9 -36 -21 -39 -26 -7 -11 -80 -48 -96 -48 -7 0 -13 7
-13 15 0 8 -7 15 -15 15 -19 0 -19 2 5 45 11 19 17 42 14 50 -4 9 1 24 11 35
11 13 16 30 13 50 -3 21 0 30 9 30 10 0 12 7 8 19 -3 11 -1 22 5 26 5 3 10 15
10 26 0 10 7 19 15 19 10 0 15 10 15 33 0 34 23 91 40 102 5 3 7 12 3 20 -10
27 6 65 28 65 12 0 17 4 14 11 -4 5 1 19 11 30 13 15 14 19 3 19 -11 0 -12 2
-1 9 8 4 13 11 13 15 -3 19 0 27 8 22 5 -3 14 14 20 38 6 24 17 49 26 56 8 7
15 19 15 27 0 8 11 30 25 50 13 20 22 40 20 44 -3 3 5 9 16 12 15 4 20 11 15
22 -3 9 -2 13 4 10 20 -12 42 26 45 77 1 29 8 54 14 56 6 2 11 10 11 18 0 7
11 21 25 30 14 9 25 23 25 30 0 8 5 14 11 14 6 0 8 9 4 20 -5 15 2 28 24 47
17 15 31 35 31 45 0 9 5 20 10 23 6 3 10 14 10 24 0 10 10 29 23 42 12 14 21
32 19 42 -2 9 0 17 5 17 12 0 83 68 83 79 0 5 6 16 13 23 8 7 18 27 24 43 6
17 17 29 26 29 9 -1 15 6 14 15 -2 36 74 151 101 151 8 0 52 88 52 105 0 4 7
13 15 22 8 8 12 19 9 25 -7 10 34 53 50 53 6 0 15 18 21 39 6 22 17 42 25 44
7 3 10 0 6 -7 -4 -6 -3 -11 3 -11 5 0 9 12 8 28 -2 20 2 26 15 24 11 -2 23 9
33 28 13 26 19 29 31 19 11 -9 14 -8 14 6 0 24 31 86 40 80 4 -3 11 11 14 30
4 19 12 34 19 32 6 -1 13 8 15 20 2 13 29 47 60 77 31 30 73 76 92 102 19 26
62 74 95 107 33 33 59 64 57 69 -1 5 2 7 7 4 5 -4 12 -2 16 4 3 5 0 10 -7 11
-7 0 -4 5 7 10 19 9 32 31 49 82 3 10 10 16 15 13 5 -3 16 5 25 19 9 14 25 25
37 25 11 0 23 8 26 18 4 9 16 26 27 37 33 31 106 133 107 147 0 9 2 10 5 1 6
-13 34 -6 34 9 0 8 40 49 126 127 17 16 42 51 54 77 13 26 25 43 28 36 5 -17
22 -15 22 2 0 8 7 16 15 20 8 3 20 17 25 31 5 14 15 25 22 24 10 0 10 -2 1 -6
-7 -2 -13 -10 -13 -16 1 -23 40 36 40 59 0 16 6 24 16 24 9 0 26 10 38 23 12
13 28 21 35 19 8 -3 11 0 7 7 -4 7 -1 9 8 5 10 -4 17 2 21 19 4 14 16 34 28
44 12 11 37 36 55 56 21 25 41 37 58 37 17 0 28 7 31 20 3 11 9 17 14 14 5 -3
9 0 9 6 0 6 15 25 33 42 17 17 26 27 18 23 -9 -5 -12 -4 -7 3 4 7 14 12 22 12
8 0 14 4 14 9 0 5 10 11 22 14 12 4 19 9 16 13 -9 8 52 64 69 64 7 0 13 7 13
16 0 8 4 13 9 9 13 -8 41 23 41 46 0 10 6 19 14 19 8 0 17 9 21 19 3 10 18 24
33 30 15 6 38 27 51 46 13 19 26 33 30 31 3 -3 26 15 50 39 24 24 54 46 67 49
15 4 24 14 24 26 0 11 6 20 14 20 8 0 18 9 21 20 3 11 9 20 13 20 4 0 32 20
62 45 30 25 75 55 100 67 47 23 160 128 160 149 0 7 9 9 23 5 17 -4 29 3 52
29 15 19 37 35 47 35 11 0 23 13 33 36 8 19 19 33 24 30 5 -4 26 9 46 28 20
19 49 39 63 44 15 5 26 14 25 20 -3 14 54 62 73 62 8 0 14 6 14 14 0 8 11 17
25 20 14 4 25 13 25 21 0 18 17 20 22 3 3 -9 12 -6 30 7 13 11 23 26 20 33 -2
6 1 13 7 13 6 1 16 3 21 4 6 1 15 3 20 4 6 0 10 8 10 16 0 9 9 15 25 15 14 0
25 5 25 10 0 6 7 10 15 10 8 0 15 7 15 16 0 11 6 13 19 9 12 -3 19 -1 18 7 -1
31 4 48 14 48 13 0 80 50 97 73 11 14 17 15 28 6 11 -9 14 -7 14 14 0 20 9 30
45 48 25 12 45 26 45 31 0 4 6 8 14 8 8 0 21 6 28 13 7 8 25 17 40 20 15 4 38
18 50 30 13 13 43 36 68 53 25 16 54 37 65 47 11 10 36 26 55 35 52 24 113 64
128 84 7 10 34 28 60 39 26 12 62 37 80 55 18 19 43 34 55 34 12 0 27 8 33 18
6 10 30 26 53 37 22 11 44 28 47 38 3 10 13 17 22 16 30 -3 43 1 38 10 -7 11
21 35 64 52 19 7 42 22 51 33 9 10 24 20 35 21 37 3 103 38 106 57 2 10 6 17
9 16 4 -2 16 6 28 16 12 11 24 16 27 13 10 -10 44 12 44 28 0 8 6 12 13 9 7
-2 33 14 58 37 24 22 77 56 117 76 39 19 72 38 72 43 0 5 10 12 23 16 12 4 32
17 44 30 12 13 34 24 48 24 16 0 25 6 25 15 0 8 4 15 9 15 5 0 26 8 47 17 22
9 42 16 46 15 4 -1 22 16 41 38 25 30 40 39 57 37 16 -3 31 5 44 20 12 13 48
35 80 48 33 13 64 31 68 40 5 8 18 15 29 15 11 0 22 7 25 15 4 8 13 15 21 15
8 0 11 -4 8 -10 -3 -5 -4 -10 -1 -10 7 0 94 65 125 93 14 13 33 20 48 19 17
-3 26 2 30 16 3 12 11 18 21 15 10 -2 32 8 51 22 19 14 41 25 48 25 7 0 13 7
13 15 0 8 6 15 14 15 8 0 21 8 28 18 16 22 75 53 145 76 29 10 55 22 58 27 4
5 15 9 26 9 10 0 19 6 19 14 0 7 8 16 18 20 9 3 24 9 32 14 40 23 61 32 79 32
11 0 22 8 26 19 3 11 19 21 36 25 17 3 28 10 25 15 -7 11 36 24 87 25 24 1 43
8 51 18 7 10 16 15 19 11 4 -3 15 1 25 10 9 9 48 30 86 48 38 18 78 41 88 51
10 10 29 18 43 18 19 0 23 4 18 17 -5 13 -2 15 15 11 12 -4 24 -2 27 3 7 10
93 49 110 49 7 0 15 7 18 14 3 8 22 18 41 22 20 3 36 10 36 14 0 5 18 11 39
15 22 4 45 13 52 21 6 8 22 14 36 14 13 0 22 4 18 9 -3 5 24 13 60 16 40 5 65
12 65 19 0 16 45 40 59 32 11 -7 73 22 80 37 5 13 52 30 89 32 17 1 40 9 50
18 10 10 23 17 29 17 6 0 16 7 23 15 11 13 15 13 22 3 6 -10 10 -7 14 9 4 13
10 20 15 17 5 -3 15 -2 22 3 6 4 15 8 19 8 3 0 18 10 32 22 17 15 26 18 30 10
3 -8 12 -2 25 14 19 24 26 26 73 22 41 -3 56 0 65 14 7 9 16 14 19 10 4 -4 12
-2 19 3 6 5 38 12 71 15 32 3 60 10 62 14 4 12 52 0 52 -13z m3280 -487 c0
-15 -5 -19 -16 -15 -12 4 -14 1 -9 -13 3 -11 0 -34 -8 -53 -8 -18 -17 -50 -21
-70 -4 -21 -11 -38 -16 -38 -6 0 -10 -11 -10 -24 0 -14 -4 -28 -10 -31 -5 -3
-10 -15 -10 -26 0 -10 -4 -19 -9 -19 -9 0 -23 -33 -25 -58 -1 -8 -9 -19 -19
-26 -9 -7 -17 -25 -17 -40 0 -34 -18 -69 -31 -60 -6 3 -9 0 -8 -7 2 -8 -7 -36
-19 -63 -12 -27 -22 -59 -22 -72 0 -13 -4 -24 -10 -24 -5 0 -7 -6 -4 -13 2 -7
-5 -23 -16 -35 -11 -12 -17 -22 -13 -22 4 -1 -2 -9 -15 -19 -15 -13 -18 -21
-10 -24 9 -3 3 -12 -14 -26 -16 -13 -28 -31 -28 -41 0 -10 -6 -20 -13 -23 -7
-3 -19 -23 -27 -46 -7 -23 -17 -41 -21 -41 -5 0 -22 -29 -39 -64 -17 -35 -34
-67 -38 -71 -4 -3 -7 -14 -7 -23 0 -9 -10 -21 -22 -27 -13 -5 -23 -16 -23 -24
0 -13 -39 -91 -51 -101 -8 -7 -22 -43 -21 -52 2 -10 -36 -20 -48 -13 -5 3 -7
0 -4 -9 3 -8 -1 -25 -10 -37 -8 -13 -13 -32 -10 -44 4 -15 -3 -32 -20 -52 -14
-17 -26 -38 -26 -47 0 -9 -7 -16 -15 -16 -8 0 -15 -6 -15 -12 0 -18 -49 -76
-50 -60 0 26 -20 0 -30 -41 -6 -23 -24 -60 -39 -82 -16 -22 -29 -44 -29 -48 0
-4 -10 -20 -22 -35 -11 -15 -26 -38 -33 -51 -7 -13 -16 -24 -22 -23 -16 1 -35
-19 -29 -30 3 -5 -8 -27 -25 -48 -17 -21 -31 -43 -31 -47 0 -5 -9 -14 -20 -21
-11 -7 -20 -19 -20 -27 0 -8 -9 -19 -20 -25 -11 -6 -20 -17 -20 -25 0 -7 -18
-28 -40 -45 -22 -17 -40 -38 -40 -46 0 -8 -7 -14 -15 -14 -10 0 -15 -7 -13
-17 2 -10 -2 -17 -8 -16 -6 1 -20 -20 -32 -48 -13 -28 -28 -49 -37 -49 -17 0
-64 -48 -65 -66 0 -6 -16 -23 -36 -39 -19 -16 -42 -45 -51 -66 -8 -21 -21 -40
-29 -43 -9 -3 -13 -10 -9 -15 3 -5 1 -12 -5 -16 -5 -3 -16 -20 -25 -38 -9 -18
-42 -52 -75 -77 -32 -25 -59 -51 -59 -57 -1 -7 -7 -13 -14 -13 -7 0 -19 -15
-26 -32 -7 -18 -27 -42 -45 -53 -23 -15 -30 -27 -28 -44 3 -16 -1 -22 -10 -19
-14 5 -38 -14 -38 -31 0 -6 -5 -11 -11 -11 -6 0 -9 -7 -5 -15 3 -8 1 -15 -4
-15 -6 0 -34 -24 -62 -52 -29 -29 -59 -52 -66 -50 -8 2 -11 -1 -8 -7 4 -5 -2
-16 -11 -23 -10 -7 -22 -21 -28 -30 -54 -89 -112 -161 -137 -171 -10 -3 -15
-12 -13 -20 3 -7 -8 -25 -25 -40 -16 -15 -30 -30 -30 -35 0 -4 -13 -14 -29
-24 -17 -9 -42 -36 -57 -59 -27 -43 -59 -74 -99 -95 -11 -6 -19 -15 -18 -21 1
-6 -4 -17 -12 -23 -8 -7 -15 -19 -15 -26 0 -8 -7 -14 -16 -14 -10 0 -14 -6
-11 -14 4 -10 1 -13 -9 -9 -10 4 -17 -2 -21 -16 -3 -13 -11 -20 -19 -17 -7 3
-16 -4 -19 -15 -4 -10 -15 -19 -27 -19 -14 0 -18 -5 -14 -15 3 -9 0 -15 -8
-15 -14 0 -159 -140 -183 -177 -8 -12 -24 -25 -35 -29 -11 -3 -17 -12 -14 -20
3 -8 0 -14 -8 -14 -7 0 -22 -11 -34 -25 -12 -14 -27 -25 -33 -25 -6 0 -9 -6
-7 -12 5 -14 -15 -38 -30 -38 -5 0 -30 -21 -55 -48 -25 -26 -57 -56 -72 -67
-35 -26 -65 -57 -65 -66 0 -4 -13 -15 -28 -24 -16 -10 -37 -30 -48 -46 -10
-16 -23 -29 -28 -29 -5 0 -33 -20 -62 -45 -28 -25 -56 -45 -60 -45 -5 0 -27
-19 -49 -43 -22 -23 -52 -49 -67 -56 -15 -8 -28 -23 -30 -35 -2 -15 -9 -20
-25 -18 -16 2 -23 -2 -23 -12 0 -9 -3 -15 -7 -14 -5 1 -21 -10 -37 -25 -16
-14 -32 -24 -37 -22 -4 3 -16 -4 -27 -15 -12 -13 -25 -18 -35 -14 -12 4 -17 1
-17 -10 0 -9 -3 -16 -8 -16 -4 0 -21 -12 -37 -27 -16 -16 -33 -27 -37 -26 -4
2 -10 -6 -13 -17 -3 -10 -15 -22 -26 -25 -10 -4 -19 -11 -19 -16 0 -5 -6 -9
-14 -9 -8 0 -19 -12 -24 -27 -7 -18 -11 -22 -11 -10 -1 14 -8 10 -32 -18 -18
-21 -40 -35 -54 -35 -12 0 -39 -11 -59 -25 -20 -14 -41 -25 -46 -25 -4 0 -19
-12 -32 -28 -16 -19 -34 -28 -58 -30 -19 -1 -36 -7 -38 -12 -2 -6 -10 -10 -19
-10 -8 0 -13 -6 -10 -12 4 -15 -21 -37 -42 -38 -7 0 -22 -12 -33 -26 -11 -14
-26 -23 -34 -20 -7 3 -17 0 -21 -7 -8 -12 -38 -28 -115 -61 -21 -9 -38 -19
-38 -24 0 -13 -70 -34 -111 -34 -22 1 -45 -6 -53 -13 -8 -8 -27 -14 -42 -15
-218 -1 -275 1 -305 14 -19 8 -59 17 -89 21 -30 4 -67 16 -82 26 -14 11 -31
19 -37 19 -5 0 -14 6 -18 14 -4 7 -18 18 -30 25 -13 6 -23 18 -23 25 0 7 -9
21 -20 31 -11 10 -18 20 -15 23 3 3 -1 12 -8 21 -27 32 -44 279 -19 274 6 -1
8 6 5 17 -8 29 29 180 44 180 7 0 10 7 6 15 -3 9 2 24 11 34 17 19 40 117 30
132 -3 5 8 38 25 74 17 36 30 68 29 73 -1 8 15 51 38 96 8 16 14 37 14 48 0
10 5 18 10 18 6 0 10 6 10 14 0 23 51 126 62 126 5 0 8 7 5 14 -4 9 12 35 37
63 27 30 46 62 50 85 5 27 17 46 42 64 19 15 32 29 29 32 -3 3 5 16 16 28 20
21 20 24 6 30 -9 3 -15 10 -12 15 3 4 12 6 20 3 8 -4 18 1 21 10 3 9 13 16 21
16 9 0 13 6 10 14 -4 9 2 17 14 21 10 4 19 13 19 20 0 8 12 26 26 40 14 14 23
32 20 40 -3 8 -1 15 4 15 15 0 150 138 150 154 0 7 18 32 41 55 24 24 39 47
36 55 -4 9 9 24 34 40 21 15 39 34 39 43 0 10 27 43 60 74 33 31 60 61 60 66
0 5 9 18 20 28 11 10 17 22 13 28 -3 5 -2 7 4 4 5 -3 24 10 42 28 18 19 37 35
42 35 5 0 9 7 9 15 0 9 7 18 15 21 9 4 14 14 13 23 -2 11 4 16 18 16 12 0 31
8 42 18 11 10 22 15 24 10 3 -4 4 -3 2 3 -1 6 8 22 20 35 12 13 25 32 29 42 4
9 15 20 24 24 10 4 24 15 31 25 7 10 22 18 32 18 10 0 22 9 25 20 4 11 15 20
27 20 16 0 19 5 15 21 -4 13 0 22 11 27 9 3 27 19 40 34 13 15 30 28 38 28 8
0 14 6 14 14 0 19 64 66 89 66 12 0 21 6 21 12 0 7 28 40 63 74 34 33 70 73
80 88 10 15 32 29 48 33 16 3 29 12 29 20 0 9 6 13 14 10 16 -6 40 16 29 26
-3 4 -1 7 6 7 15 0 72 40 89 63 8 10 20 16 28 13 8 -3 14 1 14 9 0 8 7 15 15
15 8 0 54 38 102 85 48 47 94 83 100 80 7 -2 12 1 10 8 -1 6 9 13 22 15 13 2
25 11 28 21 2 9 15 18 28 19 29 2 94 43 95 60 0 6 6 12 14 12 8 0 16 7 20 15
3 8 12 15 21 15 8 0 15 5 15 10 0 6 23 24 50 41 28 17 50 34 50 37 0 9 50 32
67 32 7 0 13 4 13 9 0 5 11 13 25 18 15 5 34 26 47 53 15 30 30 45 43 46 11 0
27 1 36 2 14 2 55 33 110 85 11 9 21 17 24 17 3 0 11 5 18 10 49 42 62 50 78
50 10 0 26 10 36 23 10 13 25 26 33 30 8 4 22 11 30 15 38 22 61 32 71 32 6 0
27 14 46 30 18 17 40 30 47 30 7 0 22 11 32 25 10 14 23 25 28 25 4 0 25 17
45 38 20 20 52 42 71 47 24 7 36 18 41 35 4 14 7 19 8 12 1 -9 11 -5 32 12 17
14 34 26 38 26 5 0 24 13 44 29 25 19 44 27 61 24 13 -3 27 0 30 6 5 7 1 9 -8
5 -9 -3 -16 -1 -16 4 0 6 15 14 34 17 19 4 60 26 92 50 31 24 63 41 71 38 7
-3 13 0 13 5 0 6 9 14 21 17 12 4 38 22 58 39 20 18 55 43 79 56 23 13 42 30
42 37 0 7 7 13 16 13 21 0 91 38 122 68 14 12 31 22 39 22 8 0 11 5 8 10 -3 6
3 10 15 10 11 0 23 7 26 15 4 8 18 15 33 15 18 0 35 11 54 35 20 26 38 37 67
41 22 4 40 11 40 16 0 6 7 7 15 4 9 -3 18 1 21 9 4 8 11 15 16 15 11 0 101 61
106 73 2 4 10 7 17 7 7 0 15 6 18 14 3 8 19 17 36 21 17 4 33 11 37 16 3 5 20
16 37 24 18 8 39 19 47 23 44 26 80 42 94 42 9 0 16 6 16 14 0 16 27 29 41 20
5 -3 9 1 9 9 0 8 8 14 17 13 10 0 22 9 28 22 5 12 15 20 22 18 7 -3 15 -1 18
4 3 5 12 7 20 4 7 -3 25 2 39 11 14 10 46 19 72 20 25 2 48 6 51 9 13 12 23 5
23 -15z m6997 -1262 c12 -2 29 -9 37 -16 8 -7 19 -10 25 -7 15 10 18 -27 4
-56 -8 -14 -20 -29 -28 -32 -8 -3 -15 -13 -15 -23 0 -9 -31 -46 -69 -82 -38
-37 -72 -76 -75 -88 -4 -12 -16 -25 -26 -28 -10 -3 -21 -14 -24 -23 -3 -10
-29 -32 -57 -50 -27 -19 -53 -40 -56 -48 -3 -8 -12 -14 -19 -14 -8 0 -17 -7
-20 -15 -4 -8 -10 -15 -15 -15 -5 0 -19 -8 -30 -19 -12 -10 -39 -34 -61 -52
-21 -19 -51 -46 -66 -61 -14 -16 -32 -28 -38 -28 -7 0 -14 -7 -18 -15 -3 -8
-26 -24 -51 -36 -25 -12 -45 -27 -45 -34 0 -8 -15 -17 -32 -21 -18 -3 -46 -17
-61 -30 -16 -13 -39 -24 -51 -24 -13 0 -34 -8 -47 -17 -36 -27 -85 -53 -99
-53 -7 0 -25 -11 -42 -25 -16 -14 -40 -25 -54 -25 -13 0 -33 -9 -44 -20 -11
-11 -24 -20 -30 -20 -5 0 -10 -4 -10 -10 0 -5 -14 -10 -31 -10 -45 0 -123 -21
-132 -36 -4 -7 -14 -11 -22 -8 -8 4 -15 2 -15 -3 0 -5 -18 -7 -40 -5 -29 3
-47 -1 -60 -13 -13 -12 -27 -15 -45 -11 -14 4 -25 2 -25 -3 0 -5 -12 -9 -27
-8 -24 2 -105 -19 -168 -43 -75 -29 -126 -42 -162 -41 -34 1 -43 -2 -43 -15 0
-12 -4 -14 -12 -7 -8 6 -44 7 -93 2 -122 -12 -148 -16 -190 -28 -27 -7 -43 -7
-51 0 -9 7 -24 7 -48 1 -19 -6 -37 -8 -40 -5 -3 3 -13 2 -23 -2 -10 -4 -32 -8
-50 -10 -18 -1 -38 -7 -46 -13 -8 -7 -17 -9 -21 -5 -10 11 -60 9 -68 -2 -5 -6
-11 -5 -17 4 -6 9 -14 10 -22 5 -8 -5 -62 -9 -121 -9 -82 0 -109 3 -113 14 -3
7 -12 11 -20 7 -16 -6 -20 -2 -29 37 -4 16 -3 26 2 23 11 -6 82 57 82 73 0 7
4 10 8 7 5 -3 33 21 63 52 31 32 62 56 71 54 9 -2 19 2 23 7 3 6 14 11 24 11
22 0 134 118 125 132 -4 6 -2 8 4 4 6 -3 23 5 38 19 15 14 35 24 44 23 10 -2
29 12 44 30 15 17 34 32 42 32 9 0 12 5 8 12 -5 8 -2 9 9 5 11 -4 17 -1 17 7
0 8 10 16 23 19 55 14 125 42 153 64 17 13 36 23 43 23 6 0 31 18 54 40 23 22
47 38 53 36 7 -3 14 5 17 16 4 12 11 18 19 15 8 -2 22 1 33 9 10 8 29 14 42
14 13 0 23 4 23 9 0 11 73 41 100 41 11 0 20 3 20 8 0 4 10 7 23 8 41 2 91 15
98 26 4 6 14 8 23 5 9 -4 16 -3 16 2 0 5 12 12 26 15 14 4 36 17 48 29 12 12
25 23 29 24 4 2 21 10 37 18 20 10 53 15 96 14 42 -1 69 2 73 10 4 6 20 14 36
17 15 3 37 11 49 19 11 8 37 15 57 15 21 0 39 5 41 11 2 6 19 12 37 14 18 1
36 7 40 13 3 6 32 13 64 16 83 7 197 47 197 67 0 6 9 8 19 4 13 -4 23 0 29 11
8 15 24 18 100 16 52 -1 93 2 97 8 3 5 17 10 31 10 14 0 24 6 24 14 0 15 43
16 57 3 11 -11 73 -8 96 5 46 25 126 30 224 15z m-5992 -1898 c6 -19 -6 -41
-40 -74 -6 -5 -19 -30 -30 -55 -11 -25 -22 -47 -25 -50 -14 -14 -30 -52 -25
-60 3 -6 -5 -25 -19 -43 -15 -19 -26 -37 -26 -41 0 -4 -7 -14 -15 -22 -8 -9
-15 -23 -15 -33 0 -9 -18 -35 -40 -56 -22 -21 -40 -45 -40 -52 0 -7 -7 -13
-15 -13 -9 0 -15 -9 -15 -24 0 -21 -16 -45 -80 -123 -6 -7 -10 -24 -10 -38 0
-16 -6 -25 -15 -25 -9 0 -24 -19 -35 -44 -10 -25 -30 -52 -44 -62 -14 -9 -26
-21 -26 -26 0 -6 -16 -28 -35 -49 -24 -27 -35 -49 -35 -69 0 -23 -6 -33 -25
-42 -14 -6 -25 -17 -25 -25 0 -7 -19 -37 -42 -67 -24 -29 -52 -68 -63 -87 -50
-85 -63 -102 -78 -111 -9 -5 -17 -16 -17 -24 0 -8 -4 -12 -10 -9 -5 3 -10 -1
-10 -9 0 -9 -5 -16 -11 -16 -5 0 -7 -6 -3 -12 4 -7 4 -10 -1 -6 -11 11 -35
-11 -35 -31 0 -9 -14 -32 -30 -51 -16 -19 -30 -39 -30 -44 0 -6 -12 -23 -27
-38 -16 -17 -21 -28 -13 -28 7 0 1 -11 -14 -25 -14 -13 -26 -34 -26 -46 0 -15
-5 -19 -15 -15 -9 3 -15 0 -15 -10 0 -10 -6 -14 -15 -10 -9 3 -15 0 -15 -9 0
-8 -4 -15 -10 -15 -5 0 -10 -6 -10 -13 0 -8 -11 -24 -25 -37 -14 -13 -25 -29
-25 -36 0 -7 -7 -17 -16 -22 -16 -9 -21 -17 -62 -91 -12 -22 -26 -41 -31 -41
-15 0 -51 -37 -51 -54 0 -9 -7 -19 -15 -22 -8 -4 -15 -12 -15 -19 0 -7 -12
-21 -27 -31 -14 -10 -46 -38 -70 -61 -24 -24 -50 -43 -57 -43 -8 0 -21 -10
-29 -23 -23 -36 -94 -107 -106 -107 -6 0 -11 -4 -11 -10 0 -5 5 -10 10 -10 6
0 10 -5 10 -10 0 -6 -6 -10 -14 -8 -7 2 -26 -10 -42 -25 -71 -69 -106 -97
-118 -97 -7 0 -22 -11 -34 -25 -12 -14 -31 -25 -43 -25 -12 0 -39 -19 -63 -44
-22 -24 -53 -46 -68 -50 -16 -3 -28 -13 -28 -21 0 -8 -7 -15 -16 -15 -9 0 -18
-9 -21 -20 -3 -11 -9 -18 -13 -15 -4 3 -25 -9 -45 -25 -21 -17 -41 -30 -44
-31 -48 -6 -62 -3 -68 16 -11 36 -12 89 -1 102 6 8 12 36 14 65 1 28 7 54 13
58 6 3 13 24 15 46 1 22 8 50 15 62 7 13 11 30 10 40 -3 24 3 39 75 193 14 31
26 63 26 72 0 9 5 19 10 22 6 4 8 11 5 16 -4 5 7 21 24 35 17 14 31 35 31 45
0 11 7 22 15 25 8 4 15 11 15 16 0 6 8 18 18 27 18 16 32 42 38 71 2 8 10 20
20 27 9 7 17 24 17 38 0 14 4 28 10 32 6 3 7 1 3 -5 -4 -7 -2 -12 3 -12 10 0
15 14 12 32 0 4 6 5 14 2 10 -4 13 -2 10 7 -6 17 73 112 86 103 5 -3 9 4 9 15
0 13 7 21 17 21 9 0 14 3 10 6 -6 6 45 54 57 54 11 0 63 57 82 89 10 17 21 31
25 31 13 0 68 63 63 72 -3 4 1 8 9 8 7 0 28 12 45 28 17 15 54 47 82 70 27 24
50 50 50 58 0 8 11 20 25 26 15 7 25 20 25 32 0 17 2 18 9 7 8 -12 13 -11 30
10 11 13 20 27 21 31 0 4 6 5 14 2 7 -3 20 2 29 10 9 10 23 13 33 9 14 -5 16
-3 11 11 -5 13 11 35 64 86 39 38 86 76 105 85 18 9 42 27 51 41 31 44 209
224 221 224 7 0 12 5 12 10 0 6 8 14 17 17 25 10 103 85 103 100 0 7 7 10 17
6 10 -4 14 -2 10 4 -3 5 10 17 29 26 19 9 37 24 40 32 4 8 10 15 15 15 5 0 38
29 74 64 35 35 67 61 70 58 3 -3 5 0 5 6 0 7 9 21 20 32 11 11 20 26 20 34 0
8 10 18 23 21 12 4 37 23 55 42 17 19 37 31 42 28 6 -3 10 0 10 7 0 7 12 28
27 46 32 38 78 44 88 11z"/>
</g>
</svg>
